<svg width="400" height="120" xmlns="http://www.w3.org/2000/svg">
  <style>
    .title { font: bold 14px -apple-system, BlinkMacSystemFont, sans-serif; fill: #c9d1d9; }
    .subtitle { font: 11px -apple-system, BlinkMacSystemFont, sans-serif; fill: #8b949e; }
    .axis { font: 10px -apple-system, BlinkMacSystemFont, sans-serif; fill: #8b949e; }
  </style>
  <rect width="100%" height="100%" fill="#0d1117" rx="6"/>
  <text x="16" y="28" class="title">Commit Activity</text>
  <text x="16" y="44" class="subtitle">Last 90 days</text>

  <line x1="16" y1="55.0" x2="384" y2="55.0" stroke="#21262d" stroke-width="1"/>
  <line x1="16" y1="66.25" x2="384" y2="66.25" stroke="#21262d" stroke-width="1"/>
  <line x1="16" y1="77.5" x2="384" y2="77.5" stroke="#21262d" stroke-width="1"/>
  <line x1="16" y1="88.75" x2="384" y2="88.75" stroke="#21262d" stroke-width="1"/>
  <line x1="16" y1="100.0" x2="384" y2="100.0" stroke="#21262d" stroke-width="1"/>
  <defs>
    <linearGradient id="fillGrad" x1="0%" y1="0%" x2="0%" y2="100%">
      <stop offset="0%" style="stop-color:#3fb950;stop-opacity:0.3"/>
      <stop offset="100%" style="stop-color:#3fb950;stop-opacity:0"/>
    </linearGradient>
  </defs>
  <polygon fill="url(#fillGrad)" points="16,100 16.0,100.0 20.1,100.0 24.3,100.0 28.4,88.5 32.5,91.8 36.7,87.7 40.8,84.5 44.9,100.0 49.1,100.0 53.2,93.5 57.3,97.5 61.5,91.8 65.6,90.2 69.8,93.5 73.9,100.0 78.0,100.0 82.2,91.8 86.3,94.3 90.4,92.6 94.6,83.6 98.7,92.6 102.8,100.0 107.0,100.0 111.1,92.6 115.2,90.2 119.4,92.6 123.5,93.5 127.6,84.5 131.8,100.0 135.9,100.0 140.0,91.8 144.2,93.5 148.3,93.5 152.4,94.3 156.6,81.2 160.7,100.0 164.9,100.0 169.0,90.2 173.1,81.2 177.3,86.9 181.4,83.6 185.5,97.5 189.7,100.0 193.8,100.0 197.9,100.0 202.1,91.0 206.2,95.1 210.3,94.3 214.5,87.7 218.6,100.0 222.7,100.0 226.9,93.5 231.0,95.9 235.1,96.7 239.3,89.4 243.4,92.6 247.6,100.0 251.7,99.2 255.8,92.6 260.0,81.2 264.1,92.6 268.2,80.4 272.4,99.2 276.5,100.0 280.6,100.0 284.8,82.8 288.9,100.0 293.0,85.3 297.2,72.2 301.3,87.7 305.4,100.0 309.6,96.7 313.7,55.0 317.8,64.8 322.0,72.2 326.1,77.9 330.2,83.6 334.4,99.2 338.5,97.5 342.7,73.0 346.8,73.8 350.9,67.3 355.1,79.5 359.2,77.1 363.3,100.0 367.5,100.0 371.6,100.0 375.7,76.3 379.9,79.5 384.0,85.3 384,100"/>
  <polyline fill="none" stroke="#3fb950" stroke-width="2" stroke-linecap="round" stroke-linejoin="round" points="16.0,100.0 20.1,100.0 24.3,100.0 28.4,88.5 32.5,91.8 36.7,87.7 40.8,84.5 44.9,100.0 49.1,100.0 53.2,93.5 57.3,97.5 61.5,91.8 65.6,90.2 69.8,93.5 73.9,100.0 78.0,100.0 82.2,91.8 86.3,94.3 90.4,92.6 94.6,83.6 98.7,92.6 102.8,100.0 107.0,100.0 111.1,92.6 115.2,90.2 119.4,92.6 123.5,93.5 127.6,84.5 131.8,100.0 135.9,100.0 140.0,91.8 144.2,93.5 148.3,93.5 152.4,94.3 156.6,81.2 160.7,100.0 164.9,100.0 169.0,90.2 173.1,81.2 177.3,86.9 181.4,83.6 185.5,97.5 189.7,100.0 193.8,100.0 197.9,100.0 202.1,91.0 206.2,95.1 210.3,94.3 214.5,87.7 218.6,100.0 222.7,100.0 226.9,93.5 231.0,95.9 235.1,96.7 239.3,89.4 243.4,92.6 247.6,100.0 251.7,99.2 255.8,92.6 260.0,81.2 264.1,92.6 268.2,80.4 272.4,99.2 276.5,100.0 280.6,100.0 284.8,82.8 288.9,100.0 293.0,85.3 297.2,72.2 301.3,87.7 305.4,100.0 309.6,96.7 313.7,55.0 317.8,64.8 322.0,72.2 326.1,77.9 330.2,83.6 334.4,99.2 338.5,97.5 342.7,73.0 346.8,73.8 350.9,67.3 355.1,79.5 359.2,77.1 363.3,100.0 367.5,100.0 371.6,100.0 375.7,76.3 379.9,79.5 384.0,85.3"/>
  <text x="384" y="28" class="subtitle" text-anchor="end">991 commits</text>
  <text x="384" y="44" class="subtitle" text-anchor="end">avg 11.0/day</text>
</svg>