<svg width="400" height="120" xmlns="http://www.w3.org/2000/svg">
  <style>
    .title { font: bold 14px -apple-system, BlinkMacSystemFont, sans-serif; fill: #c9d1d9; }
    .subtitle { font: 11px -apple-system, BlinkMacSystemFont, sans-serif; fill: #8b949e; }
    .axis { font: 10px -apple-system, BlinkMacSystemFont, sans-serif; fill: #8b949e; }
  </style>
  <rect width="100%" height="100%" fill="#0d1117" rx="6"/>
  <text x="16" y="28" class="title">Commit Activity</text>
  <text x="16" y="44" class="subtitle">Last 90 days</text>

  <line x1="16" y1="55.0" x2="384" y2="55.0" stroke="#21262d" stroke-width="1"/>
  <line x1="16" y1="66.25" x2="384" y2="66.25" stroke="#21262d" stroke-width="1"/>
  <line x1="16" y1="77.5" x2="384" y2="77.5" stroke="#21262d" stroke-width="1"/>
  <line x1="16" y1="88.75" x2="384" y2="88.75" stroke="#21262d" stroke-width="1"/>
  <line x1="16" y1="100.0" x2="384" y2="100.0" stroke="#21262d" stroke-width="1"/>
  <defs>
    <linearGradient id="fillGrad" x1="0%" y1="0%" x2="0%" y2="100%">
      <stop offset="0%" style="stop-color:#3fb950;stop-opacity:0.3"/>
      <stop offset="100%" style="stop-color:#3fb950;stop-opacity:0"/>
    </linearGradient>
  </defs>
  <polygon fill="url(#fillGrad)" points="16,100 16.0,100.0 20.1,100.0 24.3,100.0 28.4,100.0 32.5,100.0 36.7,79.2 40.8,84.4 44.9,100.0 49.1,100.0 53.2,75.8 57.3,74.0 61.5,87.9 65.6,81.0 69.8,63.7 73.9,100.0 78.0,100.0 82.2,100.0 86.3,75.8 90.4,82.7 94.6,74.0 98.7,67.1 102.8,100.0 107.0,100.0 111.1,86.2 115.2,94.8 119.4,82.7 123.5,79.2 127.6,86.2 131.8,100.0 135.9,100.0 140.0,82.7 144.2,87.9 148.3,84.4 152.4,65.4 156.6,84.4 160.7,100.0 164.9,100.0 169.0,84.4 173.1,79.2 177.3,84.4 181.4,86.2 185.5,67.1 189.7,100.0 193.8,100.0 197.9,82.7 202.1,86.2 206.2,86.2 210.3,87.9 214.5,60.2 218.6,100.0 222.7,100.0 226.9,79.2 231.0,60.2 235.1,72.3 239.3,65.4 243.4,94.8 247.6,100.0 251.7,100.0 255.8,100.0 260.0,81.0 264.1,89.6 268.2,87.9 272.4,74.0 276.5,100.0 280.6,100.0 284.8,86.2 288.9,91.3 293.0,93.1 297.2,77.5 301.3,84.4 305.4,100.0 309.6,98.3 313.7,84.4 317.8,60.2 322.0,84.4 326.1,58.5 330.2,98.3 334.4,100.0 338.5,100.0 342.7,70.6 346.8,100.0 350.9,72.3 355.1,55.0 359.2,79.2 363.3,100.0 367.5,94.8 371.6,60.2 375.7,65.4 379.9,68.8 384.0,81.0 384,100"/>
  <polyline fill="none" stroke="#3fb950" stroke-width="2" stroke-linecap="round" stroke-linejoin="round" points="16.0,100.0 20.1,100.0 24.3,100.0 28.4,100.0 32.5,100.0 36.7,79.2 40.8,84.4 44.9,100.0 49.1,100.0 53.2,75.8 57.3,74.0 61.5,87.9 65.6,81.0 69.8,63.7 73.9,100.0 78.0,100.0 82.2,100.0 86.3,75.8 90.4,82.7 94.6,74.0 98.7,67.1 102.8,100.0 107.0,100.0 111.1,86.2 115.2,94.8 119.4,82.7 123.5,79.2 127.6,86.2 131.8,100.0 135.9,100.0 140.0,82.7 144.2,87.9 148.3,84.4 152.4,65.4 156.6,84.4 160.7,100.0 164.9,100.0 169.0,84.4 173.1,79.2 177.3,84.4 181.4,86.2 185.5,67.1 189.7,100.0 193.8,100.0 197.9,82.7 202.1,86.2 206.2,86.2 210.3,87.9 214.5,60.2 218.6,100.0 222.7,100.0 226.9,79.2 231.0,60.2 235.1,72.3 239.3,65.4 243.4,94.8 247.6,100.0 251.7,100.0 255.8,100.0 260.0,81.0 264.1,89.6 268.2,87.9 272.4,74.0 276.5,100.0 280.6,100.0 284.8,86.2 288.9,91.3 293.0,93.1 297.2,77.5 301.3,84.4 305.4,100.0 309.6,98.3 313.7,84.4 317.8,60.2 322.0,84.4 326.1,58.5 330.2,98.3 334.4,100.0 338.5,100.0 342.7,70.6 346.8,100.0 350.9,72.3 355.1,55.0 359.2,79.2 363.3,100.0 367.5,94.8 371.6,60.2 375.7,65.4 379.9,68.8 384.0,81.0"/>
  <text x="384" y="28" class="subtitle" text-anchor="end">721 commits</text>
  <text x="384" y="44" class="subtitle" text-anchor="end">avg 8.0/day</text>
</svg>