<svg width="400" height="120" xmlns="http://www.w3.org/2000/svg">
  <style>
    .title { font: bold 14px -apple-system, BlinkMacSystemFont, sans-serif; fill: #c9d1d9; }
    .subtitle { font: 11px -apple-system, BlinkMacSystemFont, sans-serif; fill: #8b949e; }
    .axis { font: 10px -apple-system, BlinkMacSystemFont, sans-serif; fill: #8b949e; }
  </style>
  <rect width="100%" height="100%" fill="#0d1117" rx="6"/>
  <text x="16" y="28" class="title">Commit Activity</text>
  <text x="16" y="44" class="subtitle">Last 90 days</text>

  <line x1="16" y1="55.0" x2="384" y2="55.0" stroke="#21262d" stroke-width="1"/>
  <line x1="16" y1="66.25" x2="384" y2="66.25" stroke="#21262d" stroke-width="1"/>
  <line x1="16" y1="77.5" x2="384" y2="77.5" stroke="#21262d" stroke-width="1"/>
  <line x1="16" y1="88.75" x2="384" y2="88.75" stroke="#21262d" stroke-width="1"/>
  <line x1="16" y1="100.0" x2="384" y2="100.0" stroke="#21262d" stroke-width="1"/>
  <defs>
    <linearGradient id="fillGrad" x1="0%" y1="0%" x2="0%" y2="100%">
      <stop offset="0%" style="stop-color:#3fb950;stop-opacity:0.3"/>
      <stop offset="100%" style="stop-color:#3fb950;stop-opacity:0"/>
    </linearGradient>
  </defs>
  <polygon fill="url(#fillGrad)" points="16,100 16.0,100.0 20.1,100.0 24.3,91.3 28.4,90.5 32.5,81.8 36.7,85.3 40.8,90.5 44.9,100.0 49.1,100.0 53.2,86.2 57.3,97.4 61.5,95.7 65.6,94.8 69.8,92.2 73.9,100.0 78.0,100.0 82.2,88.8 86.3,92.2 90.4,92.2 94.6,85.3 98.7,87.9 102.8,100.0 107.0,100.0 111.1,96.5 115.2,81.0 119.4,89.6 123.5,97.4 127.6,69.7 131.8,100.0 135.9,100.0 140.0,67.1 144.2,64.5 148.3,74.0 152.4,100.0 156.6,55.0 160.7,100.0 164.9,100.0 169.0,65.4 173.1,76.6 177.3,85.3 181.4,100.0 185.5,90.5 189.7,100.0 193.8,100.0 197.9,83.6 202.1,86.2 206.2,72.3 210.3,79.2 214.5,81.0 218.6,100.0 222.7,100.0 226.9,94.8 231.0,81.0 235.1,98.3 239.3,86.2 243.4,97.4 247.6,100.0 251.7,100.0 255.8,96.5 260.0,94.8 264.1,98.3 268.2,93.1 272.4,79.2 276.5,100.0 280.6,100.0 284.8,86.2 288.9,90.5 293.0,65.4 297.2,80.1 301.3,78.4 305.4,100.0 309.6,100.0 313.7,84.4 317.8,76.6 322.0,88.8 326.1,82.7 330.2,88.8 334.4,100.0 338.5,99.1 342.7,60.2 346.8,63.7 350.9,77.5 355.1,92.2 359.2,96.5 363.3,100.0 367.5,100.0 371.6,100.0 375.7,100.0 379.9,100.0 384.0,90.5 384,100"/>
  <polyline fill="none" stroke="#3fb950" stroke-width="2" stroke-linecap="round" stroke-linejoin="round" points="16.0,100.0 20.1,100.0 24.3,91.3 28.4,90.5 32.5,81.8 36.7,85.3 40.8,90.5 44.9,100.0 49.1,100.0 53.2,86.2 57.3,97.4 61.5,95.7 65.6,94.8 69.8,92.2 73.9,100.0 78.0,100.0 82.2,88.8 86.3,92.2 90.4,92.2 94.6,85.3 98.7,87.9 102.8,100.0 107.0,100.0 111.1,96.5 115.2,81.0 119.4,89.6 123.5,97.4 127.6,69.7 131.8,100.0 135.9,100.0 140.0,67.1 144.2,64.5 148.3,74.0 152.4,100.0 156.6,55.0 160.7,100.0 164.9,100.0 169.0,65.4 173.1,76.6 177.3,85.3 181.4,100.0 185.5,90.5 189.7,100.0 193.8,100.0 197.9,83.6 202.1,86.2 206.2,72.3 210.3,79.2 214.5,81.0 218.6,100.0 222.7,100.0 226.9,94.8 231.0,81.0 235.1,98.3 239.3,86.2 243.4,97.4 247.6,100.0 251.7,100.0 255.8,96.5 260.0,94.8 264.1,98.3 268.2,93.1 272.4,79.2 276.5,100.0 280.6,100.0 284.8,86.2 288.9,90.5 293.0,65.4 297.2,80.1 301.3,78.4 305.4,100.0 309.6,100.0 313.7,84.4 317.8,76.6 322.0,88.8 326.1,82.7 330.2,88.8 334.4,100.0 338.5,99.1 342.7,60.2 346.8,63.7 350.9,77.5 355.1,92.2 359.2,96.5 363.3,100.0 367.5,100.0 371.6,100.0 375.7,100.0 379.9,100.0 384.0,90.5"/>
  <text x="384" y="28" class="subtitle" text-anchor="end">1054 commits</text>
  <text x="384" y="44" class="subtitle" text-anchor="end">avg 11.7/day</text>
</svg>