<svg width="400" height="120" xmlns="http://www.w3.org/2000/svg">
  <style>
    .title { font: bold 14px -apple-system, BlinkMacSystemFont, sans-serif; fill: #c9d1d9; }
    .subtitle { font: 11px -apple-system, BlinkMacSystemFont, sans-serif; fill: #8b949e; }
    .axis { font: 10px -apple-system, BlinkMacSystemFont, sans-serif; fill: #8b949e; }
  </style>
  <rect width="100%" height="100%" fill="#0d1117" rx="6"/>
  <text x="16" y="28" class="title">Commit Activity</text>
  <text x="16" y="44" class="subtitle">Last 90 days</text>

  <line x1="16" y1="55.0" x2="384" y2="55.0" stroke="#21262d" stroke-width="1"/>
  <line x1="16" y1="66.25" x2="384" y2="66.25" stroke="#21262d" stroke-width="1"/>
  <line x1="16" y1="77.5" x2="384" y2="77.5" stroke="#21262d" stroke-width="1"/>
  <line x1="16" y1="88.75" x2="384" y2="88.75" stroke="#21262d" stroke-width="1"/>
  <line x1="16" y1="100.0" x2="384" y2="100.0" stroke="#21262d" stroke-width="1"/>
  <defs>
    <linearGradient id="fillGrad" x1="0%" y1="0%" x2="0%" y2="100%">
      <stop offset="0%" style="stop-color:#3fb950;stop-opacity:0.3"/>
      <stop offset="100%" style="stop-color:#3fb950;stop-opacity:0"/>
    </linearGradient>
  </defs>
  <polygon fill="url(#fillGrad)" points="16,100 16.0,100.0 20.1,100.0 24.3,93.5 28.4,97.5 32.5,91.8 36.7,90.2 40.8,93.5 44.9,100.0 49.1,100.0 53.2,91.8 57.3,94.3 61.5,92.6 65.6,83.6 69.8,92.6 73.9,100.0 78.0,100.0 82.2,92.6 86.3,90.2 90.4,92.6 94.6,93.5 98.7,84.5 102.8,100.0 107.0,100.0 111.1,91.8 115.2,93.5 119.4,93.5 123.5,94.3 127.6,81.2 131.8,100.0 135.9,100.0 140.0,90.2 144.2,81.2 148.3,86.9 152.4,83.6 156.6,97.5 160.7,100.0 164.9,100.0 169.0,100.0 173.1,91.0 177.3,95.1 181.4,94.3 185.5,87.7 189.7,100.0 193.8,100.0 197.9,93.5 202.1,95.9 206.2,96.7 210.3,89.4 214.5,92.6 218.6,100.0 222.7,99.2 226.9,92.6 231.0,81.2 235.1,92.6 239.3,80.4 243.4,99.2 247.6,100.0 251.7,100.0 255.8,82.8 260.0,100.0 264.1,85.3 268.2,71.4 272.4,86.9 276.5,100.0 280.6,96.7 284.8,55.0 288.9,64.8 293.0,72.2 297.2,77.1 301.3,82.8 305.4,99.2 309.6,96.7 313.7,70.5 317.8,73.0 322.0,65.6 326.1,78.7 330.2,73.8 334.4,100.0 338.5,100.0 342.7,100.0 346.8,70.5 350.9,67.3 355.1,77.1 359.2,82.8 363.3,100.0 367.5,100.0 371.6,77.9 375.7,70.5 379.9,99.2 384.0,86.1 384,100"/>
  <polyline fill="none" stroke="#3fb950" stroke-width="2" stroke-linecap="round" stroke-linejoin="round" points="16.0,100.0 20.1,100.0 24.3,93.5 28.4,97.5 32.5,91.8 36.7,90.2 40.8,93.5 44.9,100.0 49.1,100.0 53.2,91.8 57.3,94.3 61.5,92.6 65.6,83.6 69.8,92.6 73.9,100.0 78.0,100.0 82.2,92.6 86.3,90.2 90.4,92.6 94.6,93.5 98.7,84.5 102.8,100.0 107.0,100.0 111.1,91.8 115.2,93.5 119.4,93.5 123.5,94.3 127.6,81.2 131.8,100.0 135.9,100.0 140.0,90.2 144.2,81.2 148.3,86.9 152.4,83.6 156.6,97.5 160.7,100.0 164.9,100.0 169.0,100.0 173.1,91.0 177.3,95.1 181.4,94.3 185.5,87.7 189.7,100.0 193.8,100.0 197.9,93.5 202.1,95.9 206.2,96.7 210.3,89.4 214.5,92.6 218.6,100.0 222.7,99.2 226.9,92.6 231.0,81.2 235.1,92.6 239.3,80.4 243.4,99.2 247.6,100.0 251.7,100.0 255.8,82.8 260.0,100.0 264.1,85.3 268.2,71.4 272.4,86.9 276.5,100.0 280.6,96.7 284.8,55.0 288.9,64.8 293.0,72.2 297.2,77.1 301.3,82.8 305.4,99.2 309.6,96.7 313.7,70.5 317.8,73.0 322.0,65.6 326.1,78.7 330.2,73.8 334.4,100.0 338.5,100.0 342.7,100.0 346.8,70.5 350.9,67.3 355.1,77.1 359.2,82.8 363.3,100.0 367.5,100.0 371.6,77.9 375.7,70.5 379.9,99.2 384.0,86.1"/>
  <text x="384" y="28" class="subtitle" text-anchor="end">1083 commits</text>
  <text x="384" y="44" class="subtitle" text-anchor="end">avg 12.0/day</text>
</svg>