<svg width="400" height="120" xmlns="http://www.w3.org/2000/svg">
  <style>
    .title { font: bold 14px -apple-system, BlinkMacSystemFont, sans-serif; fill: #c9d1d9; }
    .subtitle { font: 11px -apple-system, BlinkMacSystemFont, sans-serif; fill: #8b949e; }
    .axis { font: 10px -apple-system, BlinkMacSystemFont, sans-serif; fill: #8b949e; }
  </style>
  <rect width="100%" height="100%" fill="#0d1117" rx="6"/>
  <text x="16" y="28" class="title">Commit Activity</text>
  <text x="16" y="44" class="subtitle">Last 90 days</text>

  <line x1="16" y1="55.0" x2="384" y2="55.0" stroke="#21262d" stroke-width="1"/>
  <line x1="16" y1="66.25" x2="384" y2="66.25" stroke="#21262d" stroke-width="1"/>
  <line x1="16" y1="77.5" x2="384" y2="77.5" stroke="#21262d" stroke-width="1"/>
  <line x1="16" y1="88.75" x2="384" y2="88.75" stroke="#21262d" stroke-width="1"/>
  <line x1="16" y1="100.0" x2="384" y2="100.0" stroke="#21262d" stroke-width="1"/>
  <defs>
    <linearGradient id="fillGrad" x1="0%" y1="0%" x2="0%" y2="100%">
      <stop offset="0%" style="stop-color:#3fb950;stop-opacity:0.3"/>
      <stop offset="100%" style="stop-color:#3fb950;stop-opacity:0"/>
    </linearGradient>
  </defs>
  <polygon fill="url(#fillGrad)" points="16,100 16.0,100.0 20.1,100.0 24.3,86.2 28.4,97.4 32.5,95.7 36.7,94.8 40.8,92.2 44.9,100.0 49.1,100.0 53.2,88.8 57.3,92.2 61.5,92.2 65.6,85.3 69.8,87.9 73.9,100.0 78.0,100.0 82.2,96.5 86.3,81.0 90.4,89.6 94.6,97.4 98.7,69.7 102.8,100.0 107.0,100.0 111.1,67.1 115.2,64.5 119.4,74.0 123.5,100.0 127.6,55.0 131.8,100.0 135.9,100.0 140.0,65.4 144.2,76.6 148.3,85.3 152.4,100.0 156.6,90.5 160.7,100.0 164.9,100.0 169.0,83.6 173.1,86.2 177.3,72.3 181.4,79.2 185.5,81.0 189.7,100.0 193.8,100.0 197.9,94.8 202.1,81.0 206.2,98.3 210.3,86.2 214.5,97.4 218.6,100.0 222.7,100.0 226.9,96.5 231.0,94.8 235.1,98.3 239.3,93.1 243.4,79.2 247.6,100.0 251.7,100.0 255.8,86.2 260.0,90.5 264.1,65.4 268.2,80.1 272.4,78.4 276.5,100.0 280.6,100.0 284.8,84.4 288.9,76.6 293.0,88.8 297.2,82.7 301.3,88.8 305.4,100.0 309.6,99.1 313.7,60.2 317.8,63.7 322.0,77.5 326.1,90.5 330.2,94.8 334.4,100.0 338.5,100.0 342.7,100.0 346.8,100.0 350.9,100.0 355.1,89.6 359.2,93.1 363.3,100.0 367.5,100.0 371.6,90.5 375.7,87.9 379.9,94.8 384.0,92.2 384,100"/>
  <polyline fill="none" stroke="#3fb950" stroke-width="2" stroke-linecap="round" stroke-linejoin="round" points="16.0,100.0 20.1,100.0 24.3,86.2 28.4,97.4 32.5,95.7 36.7,94.8 40.8,92.2 44.9,100.0 49.1,100.0 53.2,88.8 57.3,92.2 61.5,92.2 65.6,85.3 69.8,87.9 73.9,100.0 78.0,100.0 82.2,96.5 86.3,81.0 90.4,89.6 94.6,97.4 98.7,69.7 102.8,100.0 107.0,100.0 111.1,67.1 115.2,64.5 119.4,74.0 123.5,100.0 127.6,55.0 131.8,100.0 135.9,100.0 140.0,65.4 144.2,76.6 148.3,85.3 152.4,100.0 156.6,90.5 160.7,100.0 164.9,100.0 169.0,83.6 173.1,86.2 177.3,72.3 181.4,79.2 185.5,81.0 189.7,100.0 193.8,100.0 197.9,94.8 202.1,81.0 206.2,98.3 210.3,86.2 214.5,97.4 218.6,100.0 222.7,100.0 226.9,96.5 231.0,94.8 235.1,98.3 239.3,93.1 243.4,79.2 247.6,100.0 251.7,100.0 255.8,86.2 260.0,90.5 264.1,65.4 268.2,80.1 272.4,78.4 276.5,100.0 280.6,100.0 284.8,84.4 288.9,76.6 293.0,88.8 297.2,82.7 301.3,88.8 305.4,100.0 309.6,99.1 313.7,60.2 317.8,63.7 322.0,77.5 326.1,90.5 330.2,94.8 334.4,100.0 338.5,100.0 342.7,100.0 346.8,100.0 350.9,100.0 355.1,89.6 359.2,93.1 363.3,100.0 367.5,100.0 371.6,90.5 375.7,87.9 379.9,94.8 384.0,92.2"/>
  <text x="384" y="28" class="subtitle" text-anchor="end">1037 commits</text>
  <text x="384" y="44" class="subtitle" text-anchor="end">avg 11.5/day</text>
</svg>