<svg width="400" height="120" xmlns="http://www.w3.org/2000/svg">
  <style>
    .title { font: bold 14px -apple-system, BlinkMacSystemFont, sans-serif; fill: #c9d1d9; }
    .subtitle { font: 11px -apple-system, BlinkMacSystemFont, sans-serif; fill: #8b949e; }
    .axis { font: 10px -apple-system, BlinkMacSystemFont, sans-serif; fill: #8b949e; }
  </style>
  <rect width="100%" height="100%" fill="#0d1117" rx="6"/>
  <text x="16" y="28" class="title">Commit Activity</text>
  <text x="16" y="44" class="subtitle">Last 90 days</text>

  <line x1="16" y1="55.0" x2="384" y2="55.0" stroke="#21262d" stroke-width="1"/>
  <line x1="16" y1="66.25" x2="384" y2="66.25" stroke="#21262d" stroke-width="1"/>
  <line x1="16" y1="77.5" x2="384" y2="77.5" stroke="#21262d" stroke-width="1"/>
  <line x1="16" y1="88.75" x2="384" y2="88.75" stroke="#21262d" stroke-width="1"/>
  <line x1="16" y1="100.0" x2="384" y2="100.0" stroke="#21262d" stroke-width="1"/>
  <defs>
    <linearGradient id="fillGrad" x1="0%" y1="0%" x2="0%" y2="100%">
      <stop offset="0%" style="stop-color:#3fb950;stop-opacity:0.3"/>
      <stop offset="100%" style="stop-color:#3fb950;stop-opacity:0"/>
    </linearGradient>
  </defs>
  <polygon fill="url(#fillGrad)" points="16,100 16.0,100.0 20.1,99.0 24.3,55.0 28.4,58.9 32.5,74.6 36.7,89.2 40.8,94.1 44.9,100.0 49.1,100.0 53.2,100.0 57.3,100.0 61.5,100.0 65.6,88.3 69.8,91.2 73.9,100.0 78.0,100.0 82.2,86.3 86.3,85.3 90.4,93.2 94.6,89.2 98.7,79.5 102.8,100.0 107.0,100.0 111.1,100.0 115.2,86.3 119.4,90.2 123.5,85.3 127.6,81.4 131.8,100.0 135.9,100.0 140.0,92.2 144.2,97.1 148.3,90.2 152.4,88.3 156.6,92.2 160.7,100.0 164.9,100.0 169.0,90.2 173.1,93.2 177.3,91.2 181.4,80.4 185.5,91.2 189.7,100.0 193.8,100.0 197.9,91.2 202.1,88.3 206.2,91.2 210.3,92.2 214.5,81.4 218.6,100.0 222.7,100.0 226.9,90.2 231.0,92.2 235.1,92.2 239.3,93.2 243.4,77.5 247.6,100.0 251.7,100.0 255.8,88.3 260.0,77.5 264.1,84.3 268.2,80.4 272.4,97.1 276.5,100.0 280.6,100.0 284.8,100.0 288.9,89.2 293.0,94.1 297.2,93.2 301.3,85.3 305.4,100.0 309.6,100.0 313.7,92.2 317.8,95.1 322.0,96.1 326.1,87.3 330.2,91.2 334.4,100.0 338.5,99.0 342.7,91.2 346.8,77.5 350.9,91.2 355.1,80.4 359.2,99.0 363.3,100.0 367.5,100.0 371.6,83.4 375.7,100.0 379.9,89.2 384.0,89.2 384,100"/>
  <polyline fill="none" stroke="#3fb950" stroke-width="2" stroke-linecap="round" stroke-linejoin="round" points="16.0,100.0 20.1,99.0 24.3,55.0 28.4,58.9 32.5,74.6 36.7,89.2 40.8,94.1 44.9,100.0 49.1,100.0 53.2,100.0 57.3,100.0 61.5,100.0 65.6,88.3 69.8,91.2 73.9,100.0 78.0,100.0 82.2,86.3 86.3,85.3 90.4,93.2 94.6,89.2 98.7,79.5 102.8,100.0 107.0,100.0 111.1,100.0 115.2,86.3 119.4,90.2 123.5,85.3 127.6,81.4 131.8,100.0 135.9,100.0 140.0,92.2 144.2,97.1 148.3,90.2 152.4,88.3 156.6,92.2 160.7,100.0 164.9,100.0 169.0,90.2 173.1,93.2 177.3,91.2 181.4,80.4 185.5,91.2 189.7,100.0 193.8,100.0 197.9,91.2 202.1,88.3 206.2,91.2 210.3,92.2 214.5,81.4 218.6,100.0 222.7,100.0 226.9,90.2 231.0,92.2 235.1,92.2 239.3,93.2 243.4,77.5 247.6,100.0 251.7,100.0 255.8,88.3 260.0,77.5 264.1,84.3 268.2,80.4 272.4,97.1 276.5,100.0 280.6,100.0 284.8,100.0 288.9,89.2 293.0,94.1 297.2,93.2 301.3,85.3 305.4,100.0 309.6,100.0 313.7,92.2 317.8,95.1 322.0,96.1 326.1,87.3 330.2,91.2 334.4,100.0 338.5,99.0 342.7,91.2 346.8,77.5 350.9,91.2 355.1,80.4 359.2,99.0 363.3,100.0 367.5,100.0 371.6,83.4 375.7,100.0 379.9,89.2 384.0,89.2"/>
  <text x="384" y="28" class="subtitle" text-anchor="end">742 commits</text>
  <text x="384" y="44" class="subtitle" text-anchor="end">avg 8.2/day</text>
</svg>