<svg width="400" height="120" xmlns="http://www.w3.org/2000/svg">
  <style>
    .title { font: bold 14px -apple-system, BlinkMacSystemFont, sans-serif; fill: #c9d1d9; }
    .subtitle { font: 11px -apple-system, BlinkMacSystemFont, sans-serif; fill: #8b949e; }
    .axis { font: 10px -apple-system, BlinkMacSystemFont, sans-serif; fill: #8b949e; }
  </style>
  <rect width="100%" height="100%" fill="#0d1117" rx="6"/>
  <text x="16" y="28" class="title">Commit Activity</text>
  <text x="16" y="44" class="subtitle">Last 90 days</text>

  <line x1="16" y1="55.0" x2="384" y2="55.0" stroke="#21262d" stroke-width="1"/>
  <line x1="16" y1="66.25" x2="384" y2="66.25" stroke="#21262d" stroke-width="1"/>
  <line x1="16" y1="77.5" x2="384" y2="77.5" stroke="#21262d" stroke-width="1"/>
  <line x1="16" y1="88.75" x2="384" y2="88.75" stroke="#21262d" stroke-width="1"/>
  <line x1="16" y1="100.0" x2="384" y2="100.0" stroke="#21262d" stroke-width="1"/>
  <defs>
    <linearGradient id="fillGrad" x1="0%" y1="0%" x2="0%" y2="100%">
      <stop offset="0%" style="stop-color:#3fb950;stop-opacity:0.3"/>
      <stop offset="100%" style="stop-color:#3fb950;stop-opacity:0"/>
    </linearGradient>
  </defs>
  <polygon fill="url(#fillGrad)" points="16,100 16.0,100.0 20.1,100.0 24.3,100.0 28.4,99.1 32.5,100.0 36.7,100.0 40.8,100.0 44.9,100.0 49.1,99.1 53.2,100.0 57.3,100.0 61.5,99.1 65.6,99.1 69.8,100.0 73.9,100.0 78.0,100.0 82.2,99.1 86.3,93.1 90.4,95.7 94.6,97.4 98.7,100.0 102.8,100.0 107.0,95.7 111.1,92.2 115.2,98.3 119.4,96.5 123.5,96.5 127.6,100.0 131.8,100.0 135.9,91.3 140.0,90.5 144.2,81.8 148.3,85.3 152.4,90.5 156.6,100.0 160.7,100.0 164.9,86.2 169.0,97.4 173.1,95.7 177.3,94.8 181.4,92.2 185.5,100.0 189.7,100.0 193.8,88.8 197.9,92.2 202.1,92.2 206.2,85.3 210.3,87.9 214.5,100.0 218.6,100.0 222.7,96.5 226.9,81.0 231.0,89.6 235.1,97.4 239.3,69.7 243.4,100.0 247.6,100.0 251.7,67.1 255.8,64.5 260.0,74.0 264.1,100.0 268.2,55.0 272.4,100.0 276.5,100.0 280.6,65.4 284.8,76.6 288.9,85.3 293.0,100.0 297.2,90.5 301.3,100.0 305.4,100.0 309.6,83.6 313.7,86.2 317.8,72.3 322.0,79.2 326.1,81.0 330.2,100.0 334.4,100.0 338.5,94.8 342.7,81.0 346.8,98.3 350.9,86.2 355.1,97.4 359.2,100.0 363.3,100.0 367.5,99.1 371.6,97.4 375.7,98.3 379.9,93.9 384.0,93.1 384,100"/>
  <polyline fill="none" stroke="#3fb950" stroke-width="2" stroke-linecap="round" stroke-linejoin="round" points="16.0,100.0 20.1,100.0 24.3,100.0 28.4,99.1 32.5,100.0 36.7,100.0 40.8,100.0 44.9,100.0 49.1,99.1 53.2,100.0 57.3,100.0 61.5,99.1 65.6,99.1 69.8,100.0 73.9,100.0 78.0,100.0 82.2,99.1 86.3,93.1 90.4,95.7 94.6,97.4 98.7,100.0 102.8,100.0 107.0,95.7 111.1,92.2 115.2,98.3 119.4,96.5 123.5,96.5 127.6,100.0 131.8,100.0 135.9,91.3 140.0,90.5 144.2,81.8 148.3,85.3 152.4,90.5 156.6,100.0 160.7,100.0 164.9,86.2 169.0,97.4 173.1,95.7 177.3,94.8 181.4,92.2 185.5,100.0 189.7,100.0 193.8,88.8 197.9,92.2 202.1,92.2 206.2,85.3 210.3,87.9 214.5,100.0 218.6,100.0 222.7,96.5 226.9,81.0 231.0,89.6 235.1,97.4 239.3,69.7 243.4,100.0 247.6,100.0 251.7,67.1 255.8,64.5 260.0,74.0 264.1,100.0 268.2,55.0 272.4,100.0 276.5,100.0 280.6,65.4 284.8,76.6 288.9,85.3 293.0,100.0 297.2,90.5 301.3,100.0 305.4,100.0 309.6,83.6 313.7,86.2 317.8,72.3 322.0,79.2 326.1,81.0 330.2,100.0 334.4,100.0 338.5,94.8 342.7,81.0 346.8,98.3 350.9,86.2 355.1,97.4 359.2,100.0 363.3,100.0 367.5,99.1 371.6,97.4 375.7,98.3 379.9,93.9 384.0,93.1"/>
  <text x="384" y="28" class="subtitle" text-anchor="end">731 commits</text>
  <text x="384" y="44" class="subtitle" text-anchor="end">avg 8.1/day</text>
</svg>