<svg width="400" height="120" xmlns="http://www.w3.org/2000/svg">
  <style>
    .title { font: bold 14px -apple-system, BlinkMacSystemFont, sans-serif; fill: #c9d1d9; }
    .subtitle { font: 11px -apple-system, BlinkMacSystemFont, sans-serif; fill: #8b949e; }
    .axis { font: 10px -apple-system, BlinkMacSystemFont, sans-serif; fill: #8b949e; }
  </style>
  <rect width="100%" height="100%" fill="#0d1117" rx="6"/>
  <text x="16" y="28" class="title">Commit Activity</text>
  <text x="16" y="44" class="subtitle">Last 90 days</text>

  <line x1="16" y1="55.0" x2="384" y2="55.0" stroke="#21262d" stroke-width="1"/>
  <line x1="16" y1="66.25" x2="384" y2="66.25" stroke="#21262d" stroke-width="1"/>
  <line x1="16" y1="77.5" x2="384" y2="77.5" stroke="#21262d" stroke-width="1"/>
  <line x1="16" y1="88.75" x2="384" y2="88.75" stroke="#21262d" stroke-width="1"/>
  <line x1="16" y1="100.0" x2="384" y2="100.0" stroke="#21262d" stroke-width="1"/>
  <defs>
    <linearGradient id="fillGrad" x1="0%" y1="0%" x2="0%" y2="100%">
      <stop offset="0%" style="stop-color:#3fb950;stop-opacity:0.3"/>
      <stop offset="100%" style="stop-color:#3fb950;stop-opacity:0"/>
    </linearGradient>
  </defs>
  <polygon fill="url(#fillGrad)" points="16,100 16.0,100.0 20.1,100.0 24.3,100.0 28.4,100.0 32.5,100.0 36.7,100.0 40.8,100.0 44.9,100.0 49.1,100.0 53.2,100.0 57.3,100.0 61.5,100.0 65.6,100.0 69.8,100.0 73.9,100.0 78.0,100.0 82.2,100.0 86.3,100.0 90.4,100.0 94.6,100.0 98.7,100.0 102.8,100.0 107.0,100.0 111.1,100.0 115.2,100.0 119.4,100.0 123.5,100.0 127.6,100.0 131.8,100.0 135.9,100.0 140.0,100.0 144.2,100.0 148.3,100.0 152.4,100.0 156.6,100.0 160.7,100.0 164.9,100.0 169.0,100.0 173.1,100.0 177.3,100.0 181.4,100.0 185.5,100.0 189.7,100.0 193.8,100.0 197.9,100.0 202.1,100.0 206.2,100.0 210.3,100.0 214.5,100.0 218.6,100.0 222.7,100.0 226.9,100.0 231.0,100.0 235.1,100.0 239.3,100.0 243.4,100.0 247.6,100.0 251.7,100.0 255.8,100.0 260.0,100.0 264.1,100.0 268.2,100.0 272.4,100.0 276.5,100.0 280.6,100.0 284.8,100.0 288.9,100.0 293.0,100.0 297.2,100.0 301.3,100.0 305.4,100.0 309.6,100.0 313.7,100.0 317.8,100.0 322.0,100.0 326.1,100.0 330.2,100.0 334.4,100.0 338.5,100.0 342.7,100.0 346.8,100.0 350.9,100.0 355.1,100.0 359.2,100.0 363.3,100.0 367.5,100.0 371.6,100.0 375.7,100.0 379.9,100.0 384.0,100.0 384,100"/>
  <polyline fill="none" stroke="#3fb950" stroke-width="2" stroke-linecap="round" stroke-linejoin="round" points="16.0,100.0 20.1,100.0 24.3,100.0 28.4,100.0 32.5,100.0 36.7,100.0 40.8,100.0 44.9,100.0 49.1,100.0 53.2,100.0 57.3,100.0 61.5,100.0 65.6,100.0 69.8,100.0 73.9,100.0 78.0,100.0 82.2,100.0 86.3,100.0 90.4,100.0 94.6,100.0 98.7,100.0 102.8,100.0 107.0,100.0 111.1,100.0 115.2,100.0 119.4,100.0 123.5,100.0 127.6,100.0 131.8,100.0 135.9,100.0 140.0,100.0 144.2,100.0 148.3,100.0 152.4,100.0 156.6,100.0 160.7,100.0 164.9,100.0 169.0,100.0 173.1,100.0 177.3,100.0 181.4,100.0 185.5,100.0 189.7,100.0 193.8,100.0 197.9,100.0 202.1,100.0 206.2,100.0 210.3,100.0 214.5,100.0 218.6,100.0 222.7,100.0 226.9,100.0 231.0,100.0 235.1,100.0 239.3,100.0 243.4,100.0 247.6,100.0 251.7,100.0 255.8,100.0 260.0,100.0 264.1,100.0 268.2,100.0 272.4,100.0 276.5,100.0 280.6,100.0 284.8,100.0 288.9,100.0 293.0,100.0 297.2,100.0 301.3,100.0 305.4,100.0 309.6,100.0 313.7,100.0 317.8,100.0 322.0,100.0 326.1,100.0 330.2,100.0 334.4,100.0 338.5,100.0 342.7,100.0 346.8,100.0 350.9,100.0 355.1,100.0 359.2,100.0 363.3,100.0 367.5,100.0 371.6,100.0 375.7,100.0 379.9,100.0 384.0,100.0"/>
  <text x="384" y="28" class="subtitle" text-anchor="end">0 commits</text>
  <text x="384" y="44" class="subtitle" text-anchor="end">avg 0.0/day</text>
</svg>