<svg width="400" height="120" xmlns="http://www.w3.org/2000/svg">
  <style>
    .title { font: bold 14px -apple-system, BlinkMacSystemFont, sans-serif; fill: #c9d1d9; }
    .subtitle { font: 11px -apple-system, BlinkMacSystemFont, sans-serif; fill: #8b949e; }
    .axis { font: 10px -apple-system, BlinkMacSystemFont, sans-serif; fill: #8b949e; }
  </style>
  <rect width="100%" height="100%" fill="#0d1117" rx="6"/>
  <text x="16" y="28" class="title">Commit Activity</text>
  <text x="16" y="44" class="subtitle">Last 90 days</text>

  <line x1="16" y1="55.0" x2="384" y2="55.0" stroke="#21262d" stroke-width="1"/>
  <line x1="16" y1="66.25" x2="384" y2="66.25" stroke="#21262d" stroke-width="1"/>
  <line x1="16" y1="77.5" x2="384" y2="77.5" stroke="#21262d" stroke-width="1"/>
  <line x1="16" y1="88.75" x2="384" y2="88.75" stroke="#21262d" stroke-width="1"/>
  <line x1="16" y1="100.0" x2="384" y2="100.0" stroke="#21262d" stroke-width="1"/>
  <defs>
    <linearGradient id="fillGrad" x1="0%" y1="0%" x2="0%" y2="100%">
      <stop offset="0%" style="stop-color:#3fb950;stop-opacity:0.3"/>
      <stop offset="100%" style="stop-color:#3fb950;stop-opacity:0"/>
    </linearGradient>
  </defs>
  <polygon fill="url(#fillGrad)" points="16,100 16.0,100.0 20.1,100.0 24.3,95.7 28.4,92.2 32.5,98.3 36.7,96.5 40.8,96.5 44.9,100.0 49.1,100.0 53.2,91.3 57.3,90.5 61.5,81.8 65.6,85.3 69.8,90.5 73.9,100.0 78.0,100.0 82.2,86.2 86.3,97.4 90.4,95.7 94.6,94.8 98.7,92.2 102.8,100.0 107.0,100.0 111.1,88.8 115.2,92.2 119.4,92.2 123.5,85.3 127.6,87.9 131.8,100.0 135.9,100.0 140.0,96.5 144.2,81.0 148.3,89.6 152.4,97.4 156.6,69.7 160.7,100.0 164.9,100.0 169.0,67.1 173.1,64.5 177.3,74.0 181.4,100.0 185.5,55.0 189.7,100.0 193.8,100.0 197.9,65.4 202.1,76.6 206.2,85.3 210.3,100.0 214.5,90.5 218.6,100.0 222.7,100.0 226.9,83.6 231.0,86.2 235.1,72.3 239.3,79.2 243.4,81.0 247.6,100.0 251.7,100.0 255.8,94.8 260.0,81.0 264.1,98.3 268.2,86.2 272.4,97.4 276.5,100.0 280.6,100.0 284.8,96.5 288.9,94.8 293.0,98.3 297.2,93.1 301.3,79.2 305.4,100.0 309.6,100.0 313.7,86.2 317.8,90.5 322.0,65.4 326.1,80.1 330.2,78.4 334.4,100.0 338.5,100.0 342.7,84.4 346.8,76.6 350.9,88.8 355.1,82.7 359.2,88.8 363.3,100.0 367.5,99.1 371.6,60.2 375.7,63.7 379.9,77.5 384.0,93.1 384,100"/>
  <polyline fill="none" stroke="#3fb950" stroke-width="2" stroke-linecap="round" stroke-linejoin="round" points="16.0,100.0 20.1,100.0 24.3,95.7 28.4,92.2 32.5,98.3 36.7,96.5 40.8,96.5 44.9,100.0 49.1,100.0 53.2,91.3 57.3,90.5 61.5,81.8 65.6,85.3 69.8,90.5 73.9,100.0 78.0,100.0 82.2,86.2 86.3,97.4 90.4,95.7 94.6,94.8 98.7,92.2 102.8,100.0 107.0,100.0 111.1,88.8 115.2,92.2 119.4,92.2 123.5,85.3 127.6,87.9 131.8,100.0 135.9,100.0 140.0,96.5 144.2,81.0 148.3,89.6 152.4,97.4 156.6,69.7 160.7,100.0 164.9,100.0 169.0,67.1 173.1,64.5 177.3,74.0 181.4,100.0 185.5,55.0 189.7,100.0 193.8,100.0 197.9,65.4 202.1,76.6 206.2,85.3 210.3,100.0 214.5,90.5 218.6,100.0 222.7,100.0 226.9,83.6 231.0,86.2 235.1,72.3 239.3,79.2 243.4,81.0 247.6,100.0 251.7,100.0 255.8,94.8 260.0,81.0 264.1,98.3 268.2,86.2 272.4,97.4 276.5,100.0 280.6,100.0 284.8,96.5 288.9,94.8 293.0,98.3 297.2,93.1 301.3,79.2 305.4,100.0 309.6,100.0 313.7,86.2 317.8,90.5 322.0,65.4 326.1,80.1 330.2,78.4 334.4,100.0 338.5,100.0 342.7,84.4 346.8,76.6 350.9,88.8 355.1,82.7 359.2,88.8 363.3,100.0 367.5,99.1 371.6,60.2 375.7,63.7 379.9,77.5 384.0,93.1"/>
  <text x="384" y="28" class="subtitle" text-anchor="end">1062 commits</text>
  <text x="384" y="44" class="subtitle" text-anchor="end">avg 11.8/day</text>
</svg>