<svg width="400" height="120" xmlns="http://www.w3.org/2000/svg">
  <style>
    .title { font: bold 14px -apple-system, BlinkMacSystemFont, sans-serif; fill: #c9d1d9; }
    .subtitle { font: 11px -apple-system, BlinkMacSystemFont, sans-serif; fill: #8b949e; }
    .axis { font: 10px -apple-system, BlinkMacSystemFont, sans-serif; fill: #8b949e; }
  </style>
  <rect width="100%" height="100%" fill="#0d1117" rx="6"/>
  <text x="16" y="28" class="title">Commit Activity</text>
  <text x="16" y="44" class="subtitle">Last 90 days</text>

  <line x1="16" y1="55.0" x2="384" y2="55.0" stroke="#21262d" stroke-width="1"/>
  <line x1="16" y1="66.25" x2="384" y2="66.25" stroke="#21262d" stroke-width="1"/>
  <line x1="16" y1="77.5" x2="384" y2="77.5" stroke="#21262d" stroke-width="1"/>
  <line x1="16" y1="88.75" x2="384" y2="88.75" stroke="#21262d" stroke-width="1"/>
  <line x1="16" y1="100.0" x2="384" y2="100.0" stroke="#21262d" stroke-width="1"/>
  <defs>
    <linearGradient id="fillGrad" x1="0%" y1="0%" x2="0%" y2="100%">
      <stop offset="0%" style="stop-color:#3fb950;stop-opacity:0.3"/>
      <stop offset="100%" style="stop-color:#3fb950;stop-opacity:0"/>
    </linearGradient>
  </defs>
  <polygon fill="url(#fillGrad)" points="16,100 16.0,100.0 20.1,99.3 24.3,94.0 28.4,84.8 32.5,94.0 36.7,84.1 40.8,99.3 44.9,100.0 49.1,100.0 53.2,86.1 57.3,100.0 61.5,88.8 65.6,76.8 69.8,89.4 73.9,100.0 78.0,97.4 82.2,63.6 86.3,71.5 90.4,78.8 94.6,81.5 98.7,85.4 102.8,99.3 107.0,97.4 111.1,76.2 115.2,78.2 119.4,72.2 123.5,82.8 127.6,78.8 131.8,100.0 135.9,100.0 140.0,100.0 144.2,76.2 148.3,73.5 152.4,80.8 156.6,83.5 160.7,100.0 164.9,100.0 169.0,80.8 173.1,60.3 177.3,99.3 181.4,70.9 185.5,80.1 189.7,100.0 193.8,99.3 197.9,78.2 202.1,70.2 206.2,68.9 210.3,63.6 214.5,55.0 218.6,100.0 222.7,99.3 226.9,59.6 231.0,77.5 235.1,70.2 239.3,73.5 243.4,57.0 247.6,100.0 251.7,100.0 255.8,64.9 260.0,75.5 264.1,65.6 268.2,68.9 272.4,71.5 276.5,100.0 280.6,100.0 284.8,66.9 288.9,82.1 293.0,79.5 297.2,76.2 301.3,75.5 305.4,100.0 309.6,100.0 313.7,87.4 317.8,90.1 322.0,85.4 326.1,80.8 330.2,89.4 334.4,100.0 338.5,99.3 342.7,61.0 346.8,72.9 350.9,72.2 355.1,77.5 359.2,99.3 363.3,100.0 367.5,99.3 371.6,85.4 375.7,78.2 379.9,67.6 384.0,74.2 384,100"/>
  <polyline fill="none" stroke="#3fb950" stroke-width="2" stroke-linecap="round" stroke-linejoin="round" points="16.0,100.0 20.1,99.3 24.3,94.0 28.4,84.8 32.5,94.0 36.7,84.1 40.8,99.3 44.9,100.0 49.1,100.0 53.2,86.1 57.3,100.0 61.5,88.8 65.6,76.8 69.8,89.4 73.9,100.0 78.0,97.4 82.2,63.6 86.3,71.5 90.4,78.8 94.6,81.5 98.7,85.4 102.8,99.3 107.0,97.4 111.1,76.2 115.2,78.2 119.4,72.2 123.5,82.8 127.6,78.8 131.8,100.0 135.9,100.0 140.0,100.0 144.2,76.2 148.3,73.5 152.4,80.8 156.6,83.5 160.7,100.0 164.9,100.0 169.0,80.8 173.1,60.3 177.3,99.3 181.4,70.9 185.5,80.1 189.7,100.0 193.8,99.3 197.9,78.2 202.1,70.2 206.2,68.9 210.3,63.6 214.5,55.0 218.6,100.0 222.7,99.3 226.9,59.6 231.0,77.5 235.1,70.2 239.3,73.5 243.4,57.0 247.6,100.0 251.7,100.0 255.8,64.9 260.0,75.5 264.1,65.6 268.2,68.9 272.4,71.5 276.5,100.0 280.6,100.0 284.8,66.9 288.9,82.1 293.0,79.5 297.2,76.2 301.3,75.5 305.4,100.0 309.6,100.0 313.7,87.4 317.8,90.1 322.0,85.4 326.1,80.8 330.2,89.4 334.4,100.0 338.5,99.3 342.7,61.0 346.8,72.9 350.9,72.2 355.1,77.5 359.2,99.3 363.3,100.0 367.5,99.3 371.6,85.4 375.7,78.2 379.9,67.6 384.0,74.2"/>
  <text x="384" y="28" class="subtitle" text-anchor="end">2139 commits</text>
  <text x="384" y="44" class="subtitle" text-anchor="end">avg 23.8/day</text>
</svg>