<svg width="400" height="120" xmlns="http://www.w3.org/2000/svg">
  <style>
    .title { font: bold 14px -apple-system, BlinkMacSystemFont, sans-serif; fill: #c9d1d9; }
    .subtitle { font: 11px -apple-system, BlinkMacSystemFont, sans-serif; fill: #8b949e; }
    .axis { font: 10px -apple-system, BlinkMacSystemFont, sans-serif; fill: #8b949e; }
  </style>
  <rect width="100%" height="100%" fill="#0d1117" rx="6"/>
  <text x="16" y="28" class="title">Commit Activity</text>
  <text x="16" y="44" class="subtitle">Last 90 days</text>

  <line x1="16" y1="55.0" x2="384" y2="55.0" stroke="#21262d" stroke-width="1"/>
  <line x1="16" y1="66.25" x2="384" y2="66.25" stroke="#21262d" stroke-width="1"/>
  <line x1="16" y1="77.5" x2="384" y2="77.5" stroke="#21262d" stroke-width="1"/>
  <line x1="16" y1="88.75" x2="384" y2="88.75" stroke="#21262d" stroke-width="1"/>
  <line x1="16" y1="100.0" x2="384" y2="100.0" stroke="#21262d" stroke-width="1"/>
  <defs>
    <linearGradient id="fillGrad" x1="0%" y1="0%" x2="0%" y2="100%">
      <stop offset="0%" style="stop-color:#3fb950;stop-opacity:0.3"/>
      <stop offset="100%" style="stop-color:#3fb950;stop-opacity:0"/>
    </linearGradient>
  </defs>
  <polygon fill="url(#fillGrad)" points="16,100 16.0,100.0 20.1,100.0 24.3,60.9 28.4,73.6 32.5,83.4 36.7,100.0 40.8,89.2 44.9,100.0 49.1,100.0 53.2,81.4 57.3,84.3 61.5,68.7 65.6,76.5 69.8,78.5 73.9,100.0 78.0,100.0 82.2,94.1 86.3,78.5 90.4,98.0 94.6,84.3 98.7,97.1 102.8,100.0 107.0,100.0 111.1,96.1 115.2,94.1 119.4,98.0 123.5,92.2 127.6,76.5 131.8,100.0 135.9,100.0 140.0,84.3 144.2,89.2 148.3,60.9 152.4,77.5 156.6,75.5 160.7,100.0 164.9,100.0 169.0,82.4 173.1,73.6 177.3,87.3 181.4,80.4 185.5,87.3 189.7,100.0 193.8,99.0 197.9,55.0 202.1,58.9 206.2,74.6 210.3,89.2 214.5,94.1 218.6,100.0 222.7,100.0 226.9,100.0 231.0,100.0 235.1,100.0 239.3,88.3 243.4,91.2 247.6,100.0 251.7,100.0 255.8,86.3 260.0,85.3 264.1,93.2 268.2,89.2 272.4,79.5 276.5,100.0 280.6,100.0 284.8,100.0 288.9,86.3 293.0,90.2 297.2,85.3 301.3,81.4 305.4,100.0 309.6,100.0 313.7,93.2 317.8,97.1 322.0,92.2 326.1,88.3 330.2,92.2 334.4,100.0 338.5,100.0 342.7,92.2 346.8,100.0 350.9,100.0 355.1,96.1 359.2,96.1 363.3,100.0 367.5,100.0 371.6,97.1 375.7,93.2 379.9,97.1 384.0,99.0 384,100"/>
  <polyline fill="none" stroke="#3fb950" stroke-width="2" stroke-linecap="round" stroke-linejoin="round" points="16.0,100.0 20.1,100.0 24.3,60.9 28.4,73.6 32.5,83.4 36.7,100.0 40.8,89.2 44.9,100.0 49.1,100.0 53.2,81.4 57.3,84.3 61.5,68.7 65.6,76.5 69.8,78.5 73.9,100.0 78.0,100.0 82.2,94.1 86.3,78.5 90.4,98.0 94.6,84.3 98.7,97.1 102.8,100.0 107.0,100.0 111.1,96.1 115.2,94.1 119.4,98.0 123.5,92.2 127.6,76.5 131.8,100.0 135.9,100.0 140.0,84.3 144.2,89.2 148.3,60.9 152.4,77.5 156.6,75.5 160.7,100.0 164.9,100.0 169.0,82.4 173.1,73.6 177.3,87.3 181.4,80.4 185.5,87.3 189.7,100.0 193.8,99.0 197.9,55.0 202.1,58.9 206.2,74.6 210.3,89.2 214.5,94.1 218.6,100.0 222.7,100.0 226.9,100.0 231.0,100.0 235.1,100.0 239.3,88.3 243.4,91.2 247.6,100.0 251.7,100.0 255.8,86.3 260.0,85.3 264.1,93.2 268.2,89.2 272.4,79.5 276.5,100.0 280.6,100.0 284.8,100.0 288.9,86.3 293.0,90.2 297.2,85.3 301.3,81.4 305.4,100.0 309.6,100.0 313.7,93.2 317.8,97.1 322.0,92.2 326.1,88.3 330.2,92.2 334.4,100.0 338.5,100.0 342.7,92.2 346.8,100.0 350.9,100.0 355.1,96.1 359.2,96.1 363.3,100.0 367.5,100.0 371.6,97.1 375.7,93.2 379.9,97.1 384.0,99.0"/>
  <text x="384" y="28" class="subtitle" text-anchor="end">854 commits</text>
  <text x="384" y="44" class="subtitle" text-anchor="end">avg 9.5/day</text>
</svg>