<svg width="400" height="120" xmlns="http://www.w3.org/2000/svg">
  <style>
    .title { font: bold 14px -apple-system, BlinkMacSystemFont, sans-serif; fill: #c9d1d9; }
    .subtitle { font: 11px -apple-system, BlinkMacSystemFont, sans-serif; fill: #8b949e; }
    .axis { font: 10px -apple-system, BlinkMacSystemFont, sans-serif; fill: #8b949e; }
  </style>
  <rect width="100%" height="100%" fill="#0d1117" rx="6"/>
  <text x="16" y="28" class="title">Commit Activity</text>
  <text x="16" y="44" class="subtitle">Last 90 days</text>

  <line x1="16" y1="55.0" x2="384" y2="55.0" stroke="#21262d" stroke-width="1"/>
  <line x1="16" y1="66.25" x2="384" y2="66.25" stroke="#21262d" stroke-width="1"/>
  <line x1="16" y1="77.5" x2="384" y2="77.5" stroke="#21262d" stroke-width="1"/>
  <line x1="16" y1="88.75" x2="384" y2="88.75" stroke="#21262d" stroke-width="1"/>
  <line x1="16" y1="100.0" x2="384" y2="100.0" stroke="#21262d" stroke-width="1"/>
  <defs>
    <linearGradient id="fillGrad" x1="0%" y1="0%" x2="0%" y2="100%">
      <stop offset="0%" style="stop-color:#3fb950;stop-opacity:0.3"/>
      <stop offset="100%" style="stop-color:#3fb950;stop-opacity:0"/>
    </linearGradient>
  </defs>
  <polygon fill="url(#fillGrad)" points="16,100 16.0,100.0 20.1,100.0 24.3,88.5 28.4,87.7 32.5,94.3 36.7,91.0 40.8,82.8 44.9,100.0 49.1,100.0 53.2,100.0 57.3,88.5 61.5,91.8 65.6,87.7 69.8,84.5 73.9,100.0 78.0,100.0 82.2,93.5 86.3,97.5 90.4,91.8 94.6,90.2 98.7,93.5 102.8,100.0 107.0,100.0 111.1,91.8 115.2,94.3 119.4,92.6 123.5,83.6 127.6,92.6 131.8,100.0 135.9,100.0 140.0,92.6 144.2,90.2 148.3,92.6 152.4,93.5 156.6,84.5 160.7,100.0 164.9,100.0 169.0,91.8 173.1,93.5 177.3,93.5 181.4,94.3 185.5,81.2 189.7,100.0 193.8,100.0 197.9,90.2 202.1,81.2 206.2,86.9 210.3,83.6 214.5,97.5 218.6,100.0 222.7,100.0 226.9,100.0 231.0,91.0 235.1,95.1 239.3,94.3 243.4,87.7 247.6,100.0 251.7,100.0 255.8,93.5 260.0,95.9 264.1,96.7 268.2,89.4 272.4,92.6 276.5,100.0 280.6,99.2 284.8,92.6 288.9,81.2 293.0,92.6 297.2,80.4 301.3,99.2 305.4,100.0 309.6,100.0 313.7,82.8 317.8,100.0 322.0,85.3 326.1,72.2 330.2,87.7 334.4,100.0 338.5,96.7 342.7,55.0 346.8,65.6 350.9,73.0 355.1,77.9 359.2,83.6 363.3,99.2 367.5,97.5 371.6,73.0 375.7,73.8 379.9,68.9 384.0,87.7 384,100"/>
  <polyline fill="none" stroke="#3fb950" stroke-width="2" stroke-linecap="round" stroke-linejoin="round" points="16.0,100.0 20.1,100.0 24.3,88.5 28.4,87.7 32.5,94.3 36.7,91.0 40.8,82.8 44.9,100.0 49.1,100.0 53.2,100.0 57.3,88.5 61.5,91.8 65.6,87.7 69.8,84.5 73.9,100.0 78.0,100.0 82.2,93.5 86.3,97.5 90.4,91.8 94.6,90.2 98.7,93.5 102.8,100.0 107.0,100.0 111.1,91.8 115.2,94.3 119.4,92.6 123.5,83.6 127.6,92.6 131.8,100.0 135.9,100.0 140.0,92.6 144.2,90.2 148.3,92.6 152.4,93.5 156.6,84.5 160.7,100.0 164.9,100.0 169.0,91.8 173.1,93.5 177.3,93.5 181.4,94.3 185.5,81.2 189.7,100.0 193.8,100.0 197.9,90.2 202.1,81.2 206.2,86.9 210.3,83.6 214.5,97.5 218.6,100.0 222.7,100.0 226.9,100.0 231.0,91.0 235.1,95.1 239.3,94.3 243.4,87.7 247.6,100.0 251.7,100.0 255.8,93.5 260.0,95.9 264.1,96.7 268.2,89.4 272.4,92.6 276.5,100.0 280.6,99.2 284.8,92.6 288.9,81.2 293.0,92.6 297.2,80.4 301.3,99.2 305.4,100.0 309.6,100.0 313.7,82.8 317.8,100.0 322.0,85.3 326.1,72.2 330.2,87.7 334.4,100.0 338.5,96.7 342.7,55.0 346.8,65.6 350.9,73.0 355.1,77.9 359.2,83.6 363.3,99.2 367.5,97.5 371.6,73.0 375.7,73.8 379.9,68.9 384.0,87.7"/>
  <text x="384" y="28" class="subtitle" text-anchor="end">945 commits</text>
  <text x="384" y="44" class="subtitle" text-anchor="end">avg 10.5/day</text>
</svg>