<svg width="400" height="120" xmlns="http://www.w3.org/2000/svg">
  <style>
    .title { font: bold 14px -apple-system, BlinkMacSystemFont, sans-serif; fill: #c9d1d9; }
    .subtitle { font: 11px -apple-system, BlinkMacSystemFont, sans-serif; fill: #8b949e; }
    .axis { font: 10px -apple-system, BlinkMacSystemFont, sans-serif; fill: #8b949e; }
  </style>
  <rect width="100%" height="100%" fill="#0d1117" rx="6"/>
  <text x="16" y="28" class="title">Commit Activity</text>
  <text x="16" y="44" class="subtitle">Last 90 days</text>

  <line x1="16" y1="55.0" x2="384" y2="55.0" stroke="#21262d" stroke-width="1"/>
  <line x1="16" y1="66.25" x2="384" y2="66.25" stroke="#21262d" stroke-width="1"/>
  <line x1="16" y1="77.5" x2="384" y2="77.5" stroke="#21262d" stroke-width="1"/>
  <line x1="16" y1="88.75" x2="384" y2="88.75" stroke="#21262d" stroke-width="1"/>
  <line x1="16" y1="100.0" x2="384" y2="100.0" stroke="#21262d" stroke-width="1"/>
  <defs>
    <linearGradient id="fillGrad" x1="0%" y1="0%" x2="0%" y2="100%">
      <stop offset="0%" style="stop-color:#3fb950;stop-opacity:0.3"/>
      <stop offset="100%" style="stop-color:#3fb950;stop-opacity:0"/>
    </linearGradient>
  </defs>
  <polygon fill="url(#fillGrad)" points="16,100 16.0,100.0 20.1,100.0 24.3,93.4 28.4,94.7 32.5,94.7 36.7,95.4 40.8,84.8 44.9,100.0 49.1,100.0 53.2,92.1 57.3,84.8 61.5,89.4 65.6,86.8 69.8,98.0 73.9,100.0 78.0,100.0 82.2,100.0 86.3,92.7 90.4,96.0 94.6,95.4 98.7,90.1 102.8,100.0 107.0,100.0 111.1,94.7 115.2,96.7 119.4,97.4 123.5,91.4 127.6,94.0 131.8,100.0 135.9,99.3 140.0,94.0 144.2,84.8 148.3,94.0 152.4,84.1 156.6,99.3 160.7,100.0 164.9,100.0 169.0,86.1 173.1,100.0 177.3,88.1 181.4,76.8 185.5,89.4 189.7,100.0 193.8,97.4 197.9,63.6 202.1,71.5 206.2,77.5 210.3,81.5 214.5,85.4 218.6,99.3 222.7,97.4 226.9,76.2 231.0,78.2 235.1,72.2 239.3,82.8 243.4,78.8 247.6,100.0 251.7,100.0 255.8,100.0 260.0,76.2 264.1,73.5 268.2,80.8 272.4,83.5 276.5,100.0 280.6,100.0 284.8,80.8 288.9,59.6 293.0,99.3 297.2,70.9 301.3,80.1 305.4,100.0 309.6,99.3 313.7,78.2 317.8,70.2 322.0,68.9 326.1,69.6 330.2,55.0 334.4,100.0 338.5,99.3 342.7,59.6 346.8,78.2 350.9,73.5 355.1,78.8 359.2,60.3 363.3,100.0 367.5,100.0 371.6,74.9 375.7,82.8 379.9,76.8 384.0,78.2 384,100"/>
  <polyline fill="none" stroke="#3fb950" stroke-width="2" stroke-linecap="round" stroke-linejoin="round" points="16.0,100.0 20.1,100.0 24.3,93.4 28.4,94.7 32.5,94.7 36.7,95.4 40.8,84.8 44.9,100.0 49.1,100.0 53.2,92.1 57.3,84.8 61.5,89.4 65.6,86.8 69.8,98.0 73.9,100.0 78.0,100.0 82.2,100.0 86.3,92.7 90.4,96.0 94.6,95.4 98.7,90.1 102.8,100.0 107.0,100.0 111.1,94.7 115.2,96.7 119.4,97.4 123.5,91.4 127.6,94.0 131.8,100.0 135.9,99.3 140.0,94.0 144.2,84.8 148.3,94.0 152.4,84.1 156.6,99.3 160.7,100.0 164.9,100.0 169.0,86.1 173.1,100.0 177.3,88.1 181.4,76.8 185.5,89.4 189.7,100.0 193.8,97.4 197.9,63.6 202.1,71.5 206.2,77.5 210.3,81.5 214.5,85.4 218.6,99.3 222.7,97.4 226.9,76.2 231.0,78.2 235.1,72.2 239.3,82.8 243.4,78.8 247.6,100.0 251.7,100.0 255.8,100.0 260.0,76.2 264.1,73.5 268.2,80.8 272.4,83.5 276.5,100.0 280.6,100.0 284.8,80.8 288.9,59.6 293.0,99.3 297.2,70.9 301.3,80.1 305.4,100.0 309.6,99.3 313.7,78.2 317.8,70.2 322.0,68.9 326.1,69.6 330.2,55.0 334.4,100.0 338.5,99.3 342.7,59.6 346.8,78.2 350.9,73.5 355.1,78.8 359.2,60.3 363.3,100.0 367.5,100.0 371.6,74.9 375.7,82.8 379.9,76.8 384.0,78.2"/>
  <text x="384" y="28" class="subtitle" text-anchor="end">1619 commits</text>
  <text x="384" y="44" class="subtitle" text-anchor="end">avg 18.0/day</text>
</svg>