<svg width="400" height="120" xmlns="http://www.w3.org/2000/svg">
  <style>
    .title { font: bold 14px -apple-system, BlinkMacSystemFont, sans-serif; fill: #c9d1d9; }
    .subtitle { font: 11px -apple-system, BlinkMacSystemFont, sans-serif; fill: #8b949e; }
    .axis { font: 10px -apple-system, BlinkMacSystemFont, sans-serif; fill: #8b949e; }
  </style>
  <rect width="100%" height="100%" fill="#0d1117" rx="6"/>
  <text x="16" y="28" class="title">Commit Activity</text>
  <text x="16" y="44" class="subtitle">Last 90 days</text>

  <line x1="16" y1="55.0" x2="384" y2="55.0" stroke="#21262d" stroke-width="1"/>
  <line x1="16" y1="66.25" x2="384" y2="66.25" stroke="#21262d" stroke-width="1"/>
  <line x1="16" y1="77.5" x2="384" y2="77.5" stroke="#21262d" stroke-width="1"/>
  <line x1="16" y1="88.75" x2="384" y2="88.75" stroke="#21262d" stroke-width="1"/>
  <line x1="16" y1="100.0" x2="384" y2="100.0" stroke="#21262d" stroke-width="1"/>
  <defs>
    <linearGradient id="fillGrad" x1="0%" y1="0%" x2="0%" y2="100%">
      <stop offset="0%" style="stop-color:#3fb950;stop-opacity:0.3"/>
      <stop offset="100%" style="stop-color:#3fb950;stop-opacity:0"/>
    </linearGradient>
  </defs>
  <polygon fill="url(#fillGrad)" points="16,100 16.0,100.0 20.1,100.0 24.3,82.4 28.4,73.6 32.5,87.3 36.7,80.4 40.8,87.3 44.9,100.0 49.1,99.0 53.2,55.0 57.3,58.9 61.5,74.6 65.6,89.2 69.8,94.1 73.9,100.0 78.0,100.0 82.2,100.0 86.3,100.0 90.4,100.0 94.6,88.3 98.7,91.2 102.8,100.0 107.0,100.0 111.1,86.3 115.2,85.3 119.4,93.2 123.5,89.2 127.6,79.5 131.8,100.0 135.9,100.0 140.0,100.0 144.2,86.3 148.3,90.2 152.4,85.3 156.6,81.4 160.7,100.0 164.9,100.0 169.0,92.2 173.1,97.1 177.3,90.2 181.4,88.3 185.5,92.2 189.7,100.0 193.8,100.0 197.9,90.2 202.1,93.2 206.2,91.2 210.3,80.4 214.5,91.2 218.6,100.0 222.7,100.0 226.9,91.2 231.0,88.3 235.1,91.2 239.3,92.2 243.4,81.4 247.6,100.0 251.7,100.0 255.8,90.2 260.0,93.2 264.1,92.2 268.2,93.2 272.4,77.5 276.5,100.0 280.6,100.0 284.8,88.3 288.9,77.5 293.0,84.3 297.2,80.4 301.3,97.1 305.4,100.0 309.6,100.0 313.7,100.0 317.8,91.2 322.0,94.1 326.1,93.2 330.2,85.3 334.4,100.0 338.5,100.0 342.7,92.2 346.8,95.1 350.9,96.1 355.1,89.2 359.2,92.2 363.3,100.0 367.5,100.0 371.6,93.2 375.7,82.4 379.9,96.1 384.0,92.2 384,100"/>
  <polyline fill="none" stroke="#3fb950" stroke-width="2" stroke-linecap="round" stroke-linejoin="round" points="16.0,100.0 20.1,100.0 24.3,82.4 28.4,73.6 32.5,87.3 36.7,80.4 40.8,87.3 44.9,100.0 49.1,99.0 53.2,55.0 57.3,58.9 61.5,74.6 65.6,89.2 69.8,94.1 73.9,100.0 78.0,100.0 82.2,100.0 86.3,100.0 90.4,100.0 94.6,88.3 98.7,91.2 102.8,100.0 107.0,100.0 111.1,86.3 115.2,85.3 119.4,93.2 123.5,89.2 127.6,79.5 131.8,100.0 135.9,100.0 140.0,100.0 144.2,86.3 148.3,90.2 152.4,85.3 156.6,81.4 160.7,100.0 164.9,100.0 169.0,92.2 173.1,97.1 177.3,90.2 181.4,88.3 185.5,92.2 189.7,100.0 193.8,100.0 197.9,90.2 202.1,93.2 206.2,91.2 210.3,80.4 214.5,91.2 218.6,100.0 222.7,100.0 226.9,91.2 231.0,88.3 235.1,91.2 239.3,92.2 243.4,81.4 247.6,100.0 251.7,100.0 255.8,90.2 260.0,93.2 264.1,92.2 268.2,93.2 272.4,77.5 276.5,100.0 280.6,100.0 284.8,88.3 288.9,77.5 293.0,84.3 297.2,80.4 301.3,97.1 305.4,100.0 309.6,100.0 313.7,100.0 317.8,91.2 322.0,94.1 326.1,93.2 330.2,85.3 334.4,100.0 338.5,100.0 342.7,92.2 346.8,95.1 350.9,96.1 355.1,89.2 359.2,92.2 363.3,100.0 367.5,100.0 371.6,93.2 375.7,82.4 379.9,96.1 384.0,92.2"/>
  <text x="384" y="28" class="subtitle" text-anchor="end">762 commits</text>
  <text x="384" y="44" class="subtitle" text-anchor="end">avg 8.5/day</text>
</svg>