<svg width="400" height="120" xmlns="http://www.w3.org/2000/svg">
  <style>
    .title { font: bold 14px -apple-system, BlinkMacSystemFont, sans-serif; fill: #c9d1d9; }
    .subtitle { font: 11px -apple-system, BlinkMacSystemFont, sans-serif; fill: #8b949e; }
    .axis { font: 10px -apple-system, BlinkMacSystemFont, sans-serif; fill: #8b949e; }
  </style>
  <rect width="100%" height="100%" fill="#0d1117" rx="6"/>
  <text x="16" y="28" class="title">Commit Activity</text>
  <text x="16" y="44" class="subtitle">Last 90 days</text>

  <line x1="16" y1="55.0" x2="384" y2="55.0" stroke="#21262d" stroke-width="1"/>
  <line x1="16" y1="66.25" x2="384" y2="66.25" stroke="#21262d" stroke-width="1"/>
  <line x1="16" y1="77.5" x2="384" y2="77.5" stroke="#21262d" stroke-width="1"/>
  <line x1="16" y1="88.75" x2="384" y2="88.75" stroke="#21262d" stroke-width="1"/>
  <line x1="16" y1="100.0" x2="384" y2="100.0" stroke="#21262d" stroke-width="1"/>
  <defs>
    <linearGradient id="fillGrad" x1="0%" y1="0%" x2="0%" y2="100%">
      <stop offset="0%" style="stop-color:#3fb950;stop-opacity:0.3"/>
      <stop offset="100%" style="stop-color:#3fb950;stop-opacity:0"/>
    </linearGradient>
  </defs>
  <polygon fill="url(#fillGrad)" points="16,100 16.0,100.0 20.1,100.0 24.3,100.0 28.4,92.7 32.5,96.0 36.7,97.4 40.8,90.1 44.9,100.0 49.1,100.0 53.2,94.7 57.3,96.7 61.5,97.4 65.6,91.4 69.8,94.0 73.9,100.0 78.0,99.3 82.2,94.0 86.3,84.8 90.4,94.0 94.6,84.1 98.7,99.3 102.8,100.0 107.0,100.0 111.1,86.1 115.2,100.0 119.4,88.8 123.5,76.8 127.6,89.4 131.8,100.0 135.9,97.4 140.0,63.6 144.2,71.5 148.3,78.8 152.4,81.5 156.6,85.4 160.7,99.3 164.9,97.4 169.0,76.2 173.1,78.2 177.3,72.2 181.4,82.8 185.5,78.8 189.7,100.0 193.8,100.0 197.9,100.0 202.1,76.2 206.2,73.5 210.3,80.8 214.5,83.5 218.6,100.0 222.7,100.0 226.9,80.8 231.0,60.3 235.1,99.3 239.3,70.9 243.4,80.1 247.6,100.0 251.7,99.3 255.8,78.2 260.0,70.2 264.1,68.9 268.2,63.6 272.4,55.0 276.5,100.0 280.6,99.3 284.8,59.6 288.9,77.5 293.0,70.2 297.2,73.5 301.3,57.0 305.4,100.0 309.6,100.0 313.7,64.9 317.8,75.5 322.0,65.6 326.1,68.9 330.2,71.5 334.4,100.0 338.5,100.0 342.7,66.9 346.8,82.1 350.9,79.5 355.1,76.2 359.2,75.5 363.3,100.0 367.5,100.0 371.6,88.1 375.7,90.7 379.9,86.1 384.0,96.7 384,100"/>
  <polyline fill="none" stroke="#3fb950" stroke-width="2" stroke-linecap="round" stroke-linejoin="round" points="16.0,100.0 20.1,100.0 24.3,100.0 28.4,92.7 32.5,96.0 36.7,97.4 40.8,90.1 44.9,100.0 49.1,100.0 53.2,94.7 57.3,96.7 61.5,97.4 65.6,91.4 69.8,94.0 73.9,100.0 78.0,99.3 82.2,94.0 86.3,84.8 90.4,94.0 94.6,84.1 98.7,99.3 102.8,100.0 107.0,100.0 111.1,86.1 115.2,100.0 119.4,88.8 123.5,76.8 127.6,89.4 131.8,100.0 135.9,97.4 140.0,63.6 144.2,71.5 148.3,78.8 152.4,81.5 156.6,85.4 160.7,99.3 164.9,97.4 169.0,76.2 173.1,78.2 177.3,72.2 181.4,82.8 185.5,78.8 189.7,100.0 193.8,100.0 197.9,100.0 202.1,76.2 206.2,73.5 210.3,80.8 214.5,83.5 218.6,100.0 222.7,100.0 226.9,80.8 231.0,60.3 235.1,99.3 239.3,70.9 243.4,80.1 247.6,100.0 251.7,99.3 255.8,78.2 260.0,70.2 264.1,68.9 268.2,63.6 272.4,55.0 276.5,100.0 280.6,99.3 284.8,59.6 288.9,77.5 293.0,70.2 297.2,73.5 301.3,57.0 305.4,100.0 309.6,100.0 313.7,64.9 317.8,75.5 322.0,65.6 326.1,68.9 330.2,71.5 334.4,100.0 338.5,100.0 342.7,66.9 346.8,82.1 350.9,79.5 355.1,76.2 359.2,75.5 363.3,100.0 367.5,100.0 371.6,88.1 375.7,90.7 379.9,86.1 384.0,96.7"/>
  <text x="384" y="28" class="subtitle" text-anchor="end">1849 commits</text>
  <text x="384" y="44" class="subtitle" text-anchor="end">avg 20.5/day</text>
</svg>