<svg width="400" height="120" xmlns="http://www.w3.org/2000/svg">
  <style>
    .title { font: bold 14px -apple-system, BlinkMacSystemFont, sans-serif; fill: #c9d1d9; }
    .subtitle { font: 11px -apple-system, BlinkMacSystemFont, sans-serif; fill: #8b949e; }
    .axis { font: 10px -apple-system, BlinkMacSystemFont, sans-serif; fill: #8b949e; }
  </style>
  <rect width="100%" height="100%" fill="#0d1117" rx="6"/>
  <text x="16" y="28" class="title">Commit Activity</text>
  <text x="16" y="44" class="subtitle">Last 90 days</text>

  <line x1="16" y1="55.0" x2="384" y2="55.0" stroke="#21262d" stroke-width="1"/>
  <line x1="16" y1="66.25" x2="384" y2="66.25" stroke="#21262d" stroke-width="1"/>
  <line x1="16" y1="77.5" x2="384" y2="77.5" stroke="#21262d" stroke-width="1"/>
  <line x1="16" y1="88.75" x2="384" y2="88.75" stroke="#21262d" stroke-width="1"/>
  <line x1="16" y1="100.0" x2="384" y2="100.0" stroke="#21262d" stroke-width="1"/>
  <defs>
    <linearGradient id="fillGrad" x1="0%" y1="0%" x2="0%" y2="100%">
      <stop offset="0%" style="stop-color:#3fb950;stop-opacity:0.3"/>
      <stop offset="100%" style="stop-color:#3fb950;stop-opacity:0"/>
    </linearGradient>
  </defs>
  <polygon fill="url(#fillGrad)" points="16,100 16.0,100.0 20.1,100.0 24.3,84.3 28.4,89.2 32.5,60.9 36.7,77.5 40.8,75.5 44.9,100.0 49.1,100.0 53.2,82.4 57.3,73.6 61.5,87.3 65.6,80.4 69.8,87.3 73.9,100.0 78.0,99.0 82.2,55.0 86.3,58.9 90.4,74.6 94.6,89.2 98.7,94.1 102.8,100.0 107.0,100.0 111.1,100.0 115.2,100.0 119.4,100.0 123.5,88.3 127.6,91.2 131.8,100.0 135.9,100.0 140.0,86.3 144.2,85.3 148.3,93.2 152.4,89.2 156.6,79.5 160.7,100.0 164.9,100.0 169.0,100.0 173.1,86.3 177.3,90.2 181.4,85.3 185.5,81.4 189.7,100.0 193.8,100.0 197.9,92.2 202.1,97.1 206.2,90.2 210.3,88.3 214.5,92.2 218.6,100.0 222.7,100.0 226.9,90.2 231.0,93.2 235.1,91.2 239.3,80.4 243.4,91.2 247.6,100.0 251.7,100.0 255.8,91.2 260.0,88.3 264.1,91.2 268.2,92.2 272.4,81.4 276.5,100.0 280.6,100.0 284.8,90.2 288.9,93.2 293.0,92.2 297.2,93.2 301.3,77.5 305.4,100.0 309.6,100.0 313.7,88.3 317.8,77.5 322.0,84.3 326.1,80.4 330.2,97.1 334.4,100.0 338.5,100.0 342.7,100.0 346.8,91.2 350.9,94.1 355.1,93.2 359.2,85.3 363.3,100.0 367.5,100.0 371.6,92.2 375.7,95.1 379.9,96.1 384.0,90.2 384,100"/>
  <polyline fill="none" stroke="#3fb950" stroke-width="2" stroke-linecap="round" stroke-linejoin="round" points="16.0,100.0 20.1,100.0 24.3,84.3 28.4,89.2 32.5,60.9 36.7,77.5 40.8,75.5 44.9,100.0 49.1,100.0 53.2,82.4 57.3,73.6 61.5,87.3 65.6,80.4 69.8,87.3 73.9,100.0 78.0,99.0 82.2,55.0 86.3,58.9 90.4,74.6 94.6,89.2 98.7,94.1 102.8,100.0 107.0,100.0 111.1,100.0 115.2,100.0 119.4,100.0 123.5,88.3 127.6,91.2 131.8,100.0 135.9,100.0 140.0,86.3 144.2,85.3 148.3,93.2 152.4,89.2 156.6,79.5 160.7,100.0 164.9,100.0 169.0,100.0 173.1,86.3 177.3,90.2 181.4,85.3 185.5,81.4 189.7,100.0 193.8,100.0 197.9,92.2 202.1,97.1 206.2,90.2 210.3,88.3 214.5,92.2 218.6,100.0 222.7,100.0 226.9,90.2 231.0,93.2 235.1,91.2 239.3,80.4 243.4,91.2 247.6,100.0 251.7,100.0 255.8,91.2 260.0,88.3 264.1,91.2 268.2,92.2 272.4,81.4 276.5,100.0 280.6,100.0 284.8,90.2 288.9,93.2 293.0,92.2 297.2,93.2 301.3,77.5 305.4,100.0 309.6,100.0 313.7,88.3 317.8,77.5 322.0,84.3 326.1,80.4 330.2,97.1 334.4,100.0 338.5,100.0 342.7,100.0 346.8,91.2 350.9,94.1 355.1,93.2 359.2,85.3 363.3,100.0 367.5,100.0 371.6,92.2 375.7,95.1 379.9,96.1 384.0,90.2"/>
  <text x="384" y="28" class="subtitle" text-anchor="end">831 commits</text>
  <text x="384" y="44" class="subtitle" text-anchor="end">avg 9.2/day</text>
</svg>