<svg width="400" height="120" xmlns="http://www.w3.org/2000/svg">
  <style>
    .title { font: bold 14px -apple-system, BlinkMacSystemFont, sans-serif; fill: #c9d1d9; }
    .subtitle { font: 11px -apple-system, BlinkMacSystemFont, sans-serif; fill: #8b949e; }
    .axis { font: 10px -apple-system, BlinkMacSystemFont, sans-serif; fill: #8b949e; }
  </style>
  <rect width="100%" height="100%" fill="#0d1117" rx="6"/>
  <text x="16" y="28" class="title">Commit Activity</text>
  <text x="16" y="44" class="subtitle">Last 90 days</text>

  <line x1="16" y1="55.0" x2="384" y2="55.0" stroke="#21262d" stroke-width="1"/>
  <line x1="16" y1="66.25" x2="384" y2="66.25" stroke="#21262d" stroke-width="1"/>
  <line x1="16" y1="77.5" x2="384" y2="77.5" stroke="#21262d" stroke-width="1"/>
  <line x1="16" y1="88.75" x2="384" y2="88.75" stroke="#21262d" stroke-width="1"/>
  <line x1="16" y1="100.0" x2="384" y2="100.0" stroke="#21262d" stroke-width="1"/>
  <defs>
    <linearGradient id="fillGrad" x1="0%" y1="0%" x2="0%" y2="100%">
      <stop offset="0%" style="stop-color:#3fb950;stop-opacity:0.3"/>
      <stop offset="100%" style="stop-color:#3fb950;stop-opacity:0"/>
    </linearGradient>
  </defs>
  <polygon fill="url(#fillGrad)" points="16,100 16.0,100.0 20.1,100.0 24.3,91.8 28.4,94.3 32.5,92.6 36.7,83.6 40.8,92.6 44.9,100.0 49.1,100.0 53.2,92.6 57.3,90.2 61.5,92.6 65.6,93.5 69.8,84.5 73.9,100.0 78.0,100.0 82.2,91.8 86.3,93.5 90.4,93.5 94.6,94.3 98.7,81.2 102.8,100.0 107.0,100.0 111.1,90.2 115.2,81.2 119.4,86.9 123.5,83.6 127.6,97.5 131.8,100.0 135.9,100.0 140.0,100.0 144.2,91.0 148.3,95.1 152.4,94.3 156.6,87.7 160.7,100.0 164.9,100.0 169.0,93.5 173.1,95.9 177.3,96.7 181.4,89.4 185.5,92.6 189.7,100.0 193.8,99.2 197.9,92.6 202.1,81.2 206.2,92.6 210.3,80.4 214.5,99.2 218.6,100.0 222.7,100.0 226.9,82.8 231.0,100.0 235.1,85.3 239.3,71.4 243.4,86.9 247.6,100.0 251.7,96.7 255.8,55.0 260.0,64.8 264.1,72.2 268.2,77.1 272.4,82.0 276.5,99.2 280.6,96.7 284.8,70.5 288.9,73.0 293.0,65.6 297.2,78.7 301.3,73.8 305.4,100.0 309.6,100.0 313.7,100.0 317.8,70.5 322.0,67.3 326.1,77.1 330.2,81.2 334.4,100.0 338.5,100.0 342.7,77.9 346.8,56.6 350.9,99.2 355.1,68.1 359.2,79.5 363.3,100.0 367.5,100.0 371.6,85.3 375.7,73.8 379.9,78.7 384.0,86.1 384,100"/>
  <polyline fill="none" stroke="#3fb950" stroke-width="2" stroke-linecap="round" stroke-linejoin="round" points="16.0,100.0 20.1,100.0 24.3,91.8 28.4,94.3 32.5,92.6 36.7,83.6 40.8,92.6 44.9,100.0 49.1,100.0 53.2,92.6 57.3,90.2 61.5,92.6 65.6,93.5 69.8,84.5 73.9,100.0 78.0,100.0 82.2,91.8 86.3,93.5 90.4,93.5 94.6,94.3 98.7,81.2 102.8,100.0 107.0,100.0 111.1,90.2 115.2,81.2 119.4,86.9 123.5,83.6 127.6,97.5 131.8,100.0 135.9,100.0 140.0,100.0 144.2,91.0 148.3,95.1 152.4,94.3 156.6,87.7 160.7,100.0 164.9,100.0 169.0,93.5 173.1,95.9 177.3,96.7 181.4,89.4 185.5,92.6 189.7,100.0 193.8,99.2 197.9,92.6 202.1,81.2 206.2,92.6 210.3,80.4 214.5,99.2 218.6,100.0 222.7,100.0 226.9,82.8 231.0,100.0 235.1,85.3 239.3,71.4 243.4,86.9 247.6,100.0 251.7,96.7 255.8,55.0 260.0,64.8 264.1,72.2 268.2,77.1 272.4,82.0 276.5,99.2 280.6,96.7 284.8,70.5 288.9,73.0 293.0,65.6 297.2,78.7 301.3,73.8 305.4,100.0 309.6,100.0 313.7,100.0 317.8,70.5 322.0,67.3 326.1,77.1 330.2,81.2 334.4,100.0 338.5,100.0 342.7,77.9 346.8,56.6 350.9,99.2 355.1,68.1 359.2,79.5 363.3,100.0 367.5,100.0 371.6,85.3 375.7,73.8 379.9,78.7 384.0,86.1"/>
  <text x="384" y="28" class="subtitle" text-anchor="end">1202 commits</text>
  <text x="384" y="44" class="subtitle" text-anchor="end">avg 13.4/day</text>
</svg>