<svg width="400" height="120" xmlns="http://www.w3.org/2000/svg">
  <style>
    .title { font: bold 14px -apple-system, BlinkMacSystemFont, sans-serif; fill: #c9d1d9; }
    .subtitle { font: 11px -apple-system, BlinkMacSystemFont, sans-serif; fill: #8b949e; }
    .axis { font: 10px -apple-system, BlinkMacSystemFont, sans-serif; fill: #8b949e; }
  </style>
  <rect width="100%" height="100%" fill="#0d1117" rx="6"/>
  <text x="16" y="28" class="title">Commit Activity</text>
  <text x="16" y="44" class="subtitle">Last 90 days</text>

  <line x1="16" y1="55.0" x2="384" y2="55.0" stroke="#21262d" stroke-width="1"/>
  <line x1="16" y1="66.25" x2="384" y2="66.25" stroke="#21262d" stroke-width="1"/>
  <line x1="16" y1="77.5" x2="384" y2="77.5" stroke="#21262d" stroke-width="1"/>
  <line x1="16" y1="88.75" x2="384" y2="88.75" stroke="#21262d" stroke-width="1"/>
  <line x1="16" y1="100.0" x2="384" y2="100.0" stroke="#21262d" stroke-width="1"/>
  <defs>
    <linearGradient id="fillGrad" x1="0%" y1="0%" x2="0%" y2="100%">
      <stop offset="0%" style="stop-color:#3fb950;stop-opacity:0.3"/>
      <stop offset="100%" style="stop-color:#3fb950;stop-opacity:0"/>
    </linearGradient>
  </defs>
  <polygon fill="url(#fillGrad)" points="16,100 16.0,100.0 20.1,100.0 24.3,81.4 28.4,84.3 32.5,68.7 36.7,76.5 40.8,78.5 44.9,100.0 49.1,100.0 53.2,94.1 57.3,78.5 61.5,98.0 65.6,84.3 69.8,97.1 73.9,100.0 78.0,100.0 82.2,96.1 86.3,94.1 90.4,98.0 94.6,92.2 98.7,76.5 102.8,100.0 107.0,100.0 111.1,84.3 115.2,89.2 119.4,60.9 123.5,77.5 127.6,75.5 131.8,100.0 135.9,100.0 140.0,82.4 144.2,73.6 148.3,87.3 152.4,80.4 156.6,87.3 160.7,100.0 164.9,99.0 169.0,55.0 173.1,58.9 177.3,74.6 181.4,89.2 185.5,94.1 189.7,100.0 193.8,100.0 197.9,100.0 202.1,100.0 206.2,100.0 210.3,88.3 214.5,91.2 218.6,100.0 222.7,100.0 226.9,86.3 231.0,85.3 235.1,93.2 239.3,89.2 243.4,79.5 247.6,100.0 251.7,100.0 255.8,100.0 260.0,86.3 264.1,90.2 268.2,85.3 272.4,81.4 276.5,100.0 280.6,100.0 284.8,93.2 288.9,97.1 293.0,92.2 297.2,88.3 301.3,92.2 305.4,100.0 309.6,100.0 313.7,90.2 317.8,93.2 322.0,96.1 326.1,90.2 330.2,91.2 334.4,100.0 338.5,100.0 342.7,91.2 346.8,88.3 350.9,92.2 355.1,94.1 359.2,88.3 363.3,100.0 367.5,100.0 371.6,96.1 375.7,94.1 379.9,93.2 384.0,98.0 384,100"/>
  <polyline fill="none" stroke="#3fb950" stroke-width="2" stroke-linecap="round" stroke-linejoin="round" points="16.0,100.0 20.1,100.0 24.3,81.4 28.4,84.3 32.5,68.7 36.7,76.5 40.8,78.5 44.9,100.0 49.1,100.0 53.2,94.1 57.3,78.5 61.5,98.0 65.6,84.3 69.8,97.1 73.9,100.0 78.0,100.0 82.2,96.1 86.3,94.1 90.4,98.0 94.6,92.2 98.7,76.5 102.8,100.0 107.0,100.0 111.1,84.3 115.2,89.2 119.4,60.9 123.5,77.5 127.6,75.5 131.8,100.0 135.9,100.0 140.0,82.4 144.2,73.6 148.3,87.3 152.4,80.4 156.6,87.3 160.7,100.0 164.9,99.0 169.0,55.0 173.1,58.9 177.3,74.6 181.4,89.2 185.5,94.1 189.7,100.0 193.8,100.0 197.9,100.0 202.1,100.0 206.2,100.0 210.3,88.3 214.5,91.2 218.6,100.0 222.7,100.0 226.9,86.3 231.0,85.3 235.1,93.2 239.3,89.2 243.4,79.5 247.6,100.0 251.7,100.0 255.8,100.0 260.0,86.3 264.1,90.2 268.2,85.3 272.4,81.4 276.5,100.0 280.6,100.0 284.8,93.2 288.9,97.1 293.0,92.2 297.2,88.3 301.3,92.2 305.4,100.0 309.6,100.0 313.7,90.2 317.8,93.2 322.0,96.1 326.1,90.2 330.2,91.2 334.4,100.0 338.5,100.0 342.7,91.2 346.8,88.3 350.9,92.2 355.1,94.1 359.2,88.3 363.3,100.0 367.5,100.0 371.6,96.1 375.7,94.1 379.9,93.2 384.0,98.0"/>
  <text x="384" y="28" class="subtitle" text-anchor="end">835 commits</text>
  <text x="384" y="44" class="subtitle" text-anchor="end">avg 9.3/day</text>
</svg>