<svg width="400" height="120" xmlns="http://www.w3.org/2000/svg">
  <style>
    .title { font: bold 14px -apple-system, BlinkMacSystemFont, sans-serif; fill: #c9d1d9; }
    .subtitle { font: 11px -apple-system, BlinkMacSystemFont, sans-serif; fill: #8b949e; }
    .axis { font: 10px -apple-system, BlinkMacSystemFont, sans-serif; fill: #8b949e; }
  </style>
  <rect width="100%" height="100%" fill="#0d1117" rx="6"/>
  <text x="16" y="28" class="title">Commit Activity</text>
  <text x="16" y="44" class="subtitle">Last 90 days</text>

  <line x1="16" y1="55.0" x2="384" y2="55.0" stroke="#21262d" stroke-width="1"/>
  <line x1="16" y1="66.25" x2="384" y2="66.25" stroke="#21262d" stroke-width="1"/>
  <line x1="16" y1="77.5" x2="384" y2="77.5" stroke="#21262d" stroke-width="1"/>
  <line x1="16" y1="88.75" x2="384" y2="88.75" stroke="#21262d" stroke-width="1"/>
  <line x1="16" y1="100.0" x2="384" y2="100.0" stroke="#21262d" stroke-width="1"/>
  <defs>
    <linearGradient id="fillGrad" x1="0%" y1="0%" x2="0%" y2="100%">
      <stop offset="0%" style="stop-color:#3fb950;stop-opacity:0.3"/>
      <stop offset="100%" style="stop-color:#3fb950;stop-opacity:0"/>
    </linearGradient>
  </defs>
  <polygon fill="url(#fillGrad)" points="16,100 16.0,100.0 20.1,100.0 24.3,94.1 28.4,78.5 32.5,98.0 36.7,84.3 40.8,97.1 44.9,100.0 49.1,100.0 53.2,96.1 57.3,94.1 61.5,98.0 65.6,92.2 69.8,76.5 73.9,100.0 78.0,100.0 82.2,84.3 86.3,89.2 90.4,60.9 94.6,77.5 98.7,75.5 102.8,100.0 107.0,100.0 111.1,82.4 115.2,73.6 119.4,87.3 123.5,80.4 127.6,87.3 131.8,100.0 135.9,99.0 140.0,55.0 144.2,58.9 148.3,74.6 152.4,89.2 156.6,94.1 160.7,100.0 164.9,100.0 169.0,100.0 173.1,100.0 177.3,100.0 181.4,88.3 185.5,91.2 189.7,100.0 193.8,100.0 197.9,86.3 202.1,85.3 206.2,93.2 210.3,89.2 214.5,79.5 218.6,100.0 222.7,100.0 226.9,100.0 231.0,86.3 235.1,90.2 239.3,85.3 243.4,81.4 247.6,100.0 251.7,100.0 255.8,92.2 260.0,97.1 264.1,90.2 268.2,88.3 272.4,92.2 276.5,100.0 280.6,100.0 284.8,90.2 288.9,93.2 293.0,91.2 297.2,80.4 301.3,91.2 305.4,100.0 309.6,100.0 313.7,91.2 317.8,88.3 322.0,91.2 326.1,93.2 330.2,81.4 334.4,100.0 338.5,100.0 342.7,92.2 346.8,93.2 350.9,92.2 355.1,95.1 359.2,90.2 363.3,100.0 367.5,100.0 371.6,96.1 375.7,81.4 379.9,87.3 384.0,86.3 384,100"/>
  <polyline fill="none" stroke="#3fb950" stroke-width="2" stroke-linecap="round" stroke-linejoin="round" points="16.0,100.0 20.1,100.0 24.3,94.1 28.4,78.5 32.5,98.0 36.7,84.3 40.8,97.1 44.9,100.0 49.1,100.0 53.2,96.1 57.3,94.1 61.5,98.0 65.6,92.2 69.8,76.5 73.9,100.0 78.0,100.0 82.2,84.3 86.3,89.2 90.4,60.9 94.6,77.5 98.7,75.5 102.8,100.0 107.0,100.0 111.1,82.4 115.2,73.6 119.4,87.3 123.5,80.4 127.6,87.3 131.8,100.0 135.9,99.0 140.0,55.0 144.2,58.9 148.3,74.6 152.4,89.2 156.6,94.1 160.7,100.0 164.9,100.0 169.0,100.0 173.1,100.0 177.3,100.0 181.4,88.3 185.5,91.2 189.7,100.0 193.8,100.0 197.9,86.3 202.1,85.3 206.2,93.2 210.3,89.2 214.5,79.5 218.6,100.0 222.7,100.0 226.9,100.0 231.0,86.3 235.1,90.2 239.3,85.3 243.4,81.4 247.6,100.0 251.7,100.0 255.8,92.2 260.0,97.1 264.1,90.2 268.2,88.3 272.4,92.2 276.5,100.0 280.6,100.0 284.8,90.2 288.9,93.2 293.0,91.2 297.2,80.4 301.3,91.2 305.4,100.0 309.6,100.0 313.7,91.2 317.8,88.3 322.0,91.2 326.1,93.2 330.2,81.4 334.4,100.0 338.5,100.0 342.7,92.2 346.8,93.2 350.9,92.2 355.1,95.1 359.2,90.2 363.3,100.0 367.5,100.0 371.6,96.1 375.7,81.4 379.9,87.3 384.0,86.3"/>
  <text x="384" y="28" class="subtitle" text-anchor="end">818 commits</text>
  <text x="384" y="44" class="subtitle" text-anchor="end">avg 9.1/day</text>
</svg>