<svg width="400" height="120" xmlns="http://www.w3.org/2000/svg">
  <style>
    .title { font: bold 14px -apple-system, BlinkMacSystemFont, sans-serif; fill: #c9d1d9; }
    .subtitle { font: 11px -apple-system, BlinkMacSystemFont, sans-serif; fill: #8b949e; }
    .axis { font: 10px -apple-system, BlinkMacSystemFont, sans-serif; fill: #8b949e; }
  </style>
  <rect width="100%" height="100%" fill="#0d1117" rx="6"/>
  <text x="16" y="28" class="title">Commit Activity</text>
  <text x="16" y="44" class="subtitle">Last 90 days</text>

  <line x1="16" y1="55.0" x2="384" y2="55.0" stroke="#21262d" stroke-width="1"/>
  <line x1="16" y1="66.25" x2="384" y2="66.25" stroke="#21262d" stroke-width="1"/>
  <line x1="16" y1="77.5" x2="384" y2="77.5" stroke="#21262d" stroke-width="1"/>
  <line x1="16" y1="88.75" x2="384" y2="88.75" stroke="#21262d" stroke-width="1"/>
  <line x1="16" y1="100.0" x2="384" y2="100.0" stroke="#21262d" stroke-width="1"/>
  <defs>
    <linearGradient id="fillGrad" x1="0%" y1="0%" x2="0%" y2="100%">
      <stop offset="0%" style="stop-color:#3fb950;stop-opacity:0.3"/>
      <stop offset="100%" style="stop-color:#3fb950;stop-opacity:0"/>
    </linearGradient>
  </defs>
  <polygon fill="url(#fillGrad)" points="16,100 16.0,100.0 20.1,100.0 24.3,99.1 28.4,100.0 32.5,100.0 36.7,99.1 40.8,99.1 44.9,100.0 49.1,100.0 53.2,100.0 57.3,99.1 61.5,93.1 65.6,95.7 69.8,97.4 73.9,100.0 78.0,100.0 82.2,95.7 86.3,92.2 90.4,98.3 94.6,96.5 98.7,96.5 102.8,100.0 107.0,100.0 111.1,91.3 115.2,90.5 119.4,81.8 123.5,85.3 127.6,90.5 131.8,100.0 135.9,100.0 140.0,86.2 144.2,97.4 148.3,95.7 152.4,94.8 156.6,92.2 160.7,100.0 164.9,100.0 169.0,88.8 173.1,92.2 177.3,92.2 181.4,85.3 185.5,87.9 189.7,100.0 193.8,100.0 197.9,96.5 202.1,81.0 206.2,89.6 210.3,97.4 214.5,69.7 218.6,100.0 222.7,100.0 226.9,67.1 231.0,64.5 235.1,74.0 239.3,100.0 243.4,55.0 247.6,100.0 251.7,100.0 255.8,65.4 260.0,76.6 264.1,85.3 268.2,100.0 272.4,90.5 276.5,100.0 280.6,100.0 284.8,83.6 288.9,86.2 293.0,72.3 297.2,79.2 301.3,81.0 305.4,100.0 309.6,100.0 313.7,94.8 317.8,81.0 322.0,98.3 326.1,86.2 330.2,97.4 334.4,100.0 338.5,100.0 342.7,96.5 346.8,94.8 350.9,98.3 355.1,93.9 359.2,79.2 363.3,100.0 367.5,100.0 371.6,86.2 375.7,90.5 379.9,68.0 384.0,83.6 384,100"/>
  <polyline fill="none" stroke="#3fb950" stroke-width="2" stroke-linecap="round" stroke-linejoin="round" points="16.0,100.0 20.1,100.0 24.3,99.1 28.4,100.0 32.5,100.0 36.7,99.1 40.8,99.1 44.9,100.0 49.1,100.0 53.2,100.0 57.3,99.1 61.5,93.1 65.6,95.7 69.8,97.4 73.9,100.0 78.0,100.0 82.2,95.7 86.3,92.2 90.4,98.3 94.6,96.5 98.7,96.5 102.8,100.0 107.0,100.0 111.1,91.3 115.2,90.5 119.4,81.8 123.5,85.3 127.6,90.5 131.8,100.0 135.9,100.0 140.0,86.2 144.2,97.4 148.3,95.7 152.4,94.8 156.6,92.2 160.7,100.0 164.9,100.0 169.0,88.8 173.1,92.2 177.3,92.2 181.4,85.3 185.5,87.9 189.7,100.0 193.8,100.0 197.9,96.5 202.1,81.0 206.2,89.6 210.3,97.4 214.5,69.7 218.6,100.0 222.7,100.0 226.9,67.1 231.0,64.5 235.1,74.0 239.3,100.0 243.4,55.0 247.6,100.0 251.7,100.0 255.8,65.4 260.0,76.6 264.1,85.3 268.2,100.0 272.4,90.5 276.5,100.0 280.6,100.0 284.8,83.6 288.9,86.2 293.0,72.3 297.2,79.2 301.3,81.0 305.4,100.0 309.6,100.0 313.7,94.8 317.8,81.0 322.0,98.3 326.1,86.2 330.2,97.4 334.4,100.0 338.5,100.0 342.7,96.5 346.8,94.8 350.9,98.3 355.1,93.9 359.2,79.2 363.3,100.0 367.5,100.0 371.6,86.2 375.7,90.5 379.9,68.0 384.0,83.6"/>
  <text x="384" y="28" class="subtitle" text-anchor="end">835 commits</text>
  <text x="384" y="44" class="subtitle" text-anchor="end">avg 9.3/day</text>
</svg>