<svg width="400" height="120" xmlns="http://www.w3.org/2000/svg">
  <style>
    .title { font: bold 14px -apple-system, BlinkMacSystemFont, sans-serif; fill: #c9d1d9; }
    .subtitle { font: 11px -apple-system, BlinkMacSystemFont, sans-serif; fill: #8b949e; }
    .axis { font: 10px -apple-system, BlinkMacSystemFont, sans-serif; fill: #8b949e; }
  </style>
  <rect width="100%" height="100%" fill="#0d1117" rx="6"/>
  <text x="16" y="28" class="title">Commit Activity</text>
  <text x="16" y="44" class="subtitle">Last 90 days</text>

  <line x1="16" y1="55.0" x2="384" y2="55.0" stroke="#21262d" stroke-width="1"/>
  <line x1="16" y1="66.25" x2="384" y2="66.25" stroke="#21262d" stroke-width="1"/>
  <line x1="16" y1="77.5" x2="384" y2="77.5" stroke="#21262d" stroke-width="1"/>
  <line x1="16" y1="88.75" x2="384" y2="88.75" stroke="#21262d" stroke-width="1"/>
  <line x1="16" y1="100.0" x2="384" y2="100.0" stroke="#21262d" stroke-width="1"/>
  <defs>
    <linearGradient id="fillGrad" x1="0%" y1="0%" x2="0%" y2="100%">
      <stop offset="0%" style="stop-color:#3fb950;stop-opacity:0.3"/>
      <stop offset="100%" style="stop-color:#3fb950;stop-opacity:0"/>
    </linearGradient>
  </defs>
  <polygon fill="url(#fillGrad)" points="16,100 16.0,100.0 20.1,100.0 24.3,94.0 28.4,92.1 32.5,94.0 36.7,94.7 40.8,87.4 44.9,100.0 49.1,100.0 53.2,93.4 57.3,94.7 61.5,94.7 65.6,95.4 69.8,84.8 73.9,100.0 78.0,100.0 82.2,92.1 86.3,84.8 90.4,89.4 94.6,86.8 98.7,98.0 102.8,100.0 107.0,100.0 111.1,100.0 115.2,92.7 119.4,96.0 123.5,95.4 127.6,90.1 131.8,100.0 135.9,100.0 140.0,94.7 144.2,96.7 148.3,97.4 152.4,91.4 156.6,94.0 160.7,100.0 164.9,99.3 169.0,94.0 173.1,84.8 177.3,94.0 181.4,84.1 185.5,99.3 189.7,100.0 193.8,100.0 197.9,86.1 202.1,100.0 206.2,88.1 210.3,76.8 214.5,89.4 218.6,100.0 222.7,97.4 226.9,63.6 231.0,71.5 235.1,77.5 239.3,81.5 243.4,85.4 247.6,99.3 251.7,97.4 255.8,76.2 260.0,78.2 264.1,72.2 268.2,82.8 272.4,78.8 276.5,100.0 280.6,100.0 284.8,100.0 288.9,76.2 293.0,73.5 297.2,80.8 301.3,83.5 305.4,100.0 309.6,100.0 313.7,80.8 317.8,59.6 322.0,99.3 326.1,70.9 330.2,80.1 334.4,100.0 338.5,99.3 342.7,78.2 346.8,70.2 350.9,68.9 355.1,69.6 359.2,55.0 363.3,100.0 367.5,99.3 371.6,70.2 375.7,84.8 379.9,86.8 384.0,95.4 384,100"/>
  <polyline fill="none" stroke="#3fb950" stroke-width="2" stroke-linecap="round" stroke-linejoin="round" points="16.0,100.0 20.1,100.0 24.3,94.0 28.4,92.1 32.5,94.0 36.7,94.7 40.8,87.4 44.9,100.0 49.1,100.0 53.2,93.4 57.3,94.7 61.5,94.7 65.6,95.4 69.8,84.8 73.9,100.0 78.0,100.0 82.2,92.1 86.3,84.8 90.4,89.4 94.6,86.8 98.7,98.0 102.8,100.0 107.0,100.0 111.1,100.0 115.2,92.7 119.4,96.0 123.5,95.4 127.6,90.1 131.8,100.0 135.9,100.0 140.0,94.7 144.2,96.7 148.3,97.4 152.4,91.4 156.6,94.0 160.7,100.0 164.9,99.3 169.0,94.0 173.1,84.8 177.3,94.0 181.4,84.1 185.5,99.3 189.7,100.0 193.8,100.0 197.9,86.1 202.1,100.0 206.2,88.1 210.3,76.8 214.5,89.4 218.6,100.0 222.7,97.4 226.9,63.6 231.0,71.5 235.1,77.5 239.3,81.5 243.4,85.4 247.6,99.3 251.7,97.4 255.8,76.2 260.0,78.2 264.1,72.2 268.2,82.8 272.4,78.8 276.5,100.0 280.6,100.0 284.8,100.0 288.9,76.2 293.0,73.5 297.2,80.8 301.3,83.5 305.4,100.0 309.6,100.0 313.7,80.8 317.8,59.6 322.0,99.3 326.1,70.9 330.2,80.1 334.4,100.0 338.5,99.3 342.7,78.2 346.8,70.2 350.9,68.9 355.1,69.6 359.2,55.0 363.3,100.0 367.5,99.3 371.6,70.2 375.7,84.8 379.9,86.8 384.0,95.4"/>
  <text x="384" y="28" class="subtitle" text-anchor="end">1413 commits</text>
  <text x="384" y="44" class="subtitle" text-anchor="end">avg 15.7/day</text>
</svg>