<svg width="400" height="120" xmlns="http://www.w3.org/2000/svg">
  <style>
    .title { font: bold 14px -apple-system, BlinkMacSystemFont, sans-serif; fill: #c9d1d9; }
    .subtitle { font: 11px -apple-system, BlinkMacSystemFont, sans-serif; fill: #8b949e; }
    .axis { font: 10px -apple-system, BlinkMacSystemFont, sans-serif; fill: #8b949e; }
  </style>
  <rect width="100%" height="100%" fill="#0d1117" rx="6"/>
  <text x="16" y="28" class="title">Commit Activity</text>
  <text x="16" y="44" class="subtitle">Last 90 days</text>

  <line x1="16" y1="55.0" x2="384" y2="55.0" stroke="#21262d" stroke-width="1"/>
  <line x1="16" y1="66.25" x2="384" y2="66.25" stroke="#21262d" stroke-width="1"/>
  <line x1="16" y1="77.5" x2="384" y2="77.5" stroke="#21262d" stroke-width="1"/>
  <line x1="16" y1="88.75" x2="384" y2="88.75" stroke="#21262d" stroke-width="1"/>
  <line x1="16" y1="100.0" x2="384" y2="100.0" stroke="#21262d" stroke-width="1"/>
  <defs>
    <linearGradient id="fillGrad" x1="0%" y1="0%" x2="0%" y2="100%">
      <stop offset="0%" style="stop-color:#3fb950;stop-opacity:0.3"/>
      <stop offset="100%" style="stop-color:#3fb950;stop-opacity:0"/>
    </linearGradient>
  </defs>
  <polygon fill="url(#fillGrad)" points="16,100 16.0,100.0 20.1,100.0 24.3,96.5 28.4,81.0 32.5,89.6 36.7,97.4 40.8,69.7 44.9,100.0 49.1,100.0 53.2,67.1 57.3,64.5 61.5,74.0 65.6,100.0 69.8,55.0 73.9,100.0 78.0,100.0 82.2,65.4 86.3,76.6 90.4,85.3 94.6,100.0 98.7,90.5 102.8,100.0 107.0,100.0 111.1,83.6 115.2,86.2 119.4,72.3 123.5,79.2 127.6,81.0 131.8,100.0 135.9,100.0 140.0,94.8 144.2,81.0 148.3,98.3 152.4,86.2 156.6,97.4 160.7,100.0 164.9,100.0 169.0,96.5 173.1,94.8 177.3,98.3 181.4,93.1 185.5,79.2 189.7,100.0 193.8,100.0 197.9,86.2 202.1,90.5 206.2,65.4 210.3,80.1 214.5,78.4 218.6,100.0 222.7,100.0 226.9,84.4 231.0,76.6 235.1,88.8 239.3,82.7 243.4,88.8 247.6,100.0 251.7,99.1 255.8,60.2 260.0,63.7 264.1,77.5 268.2,90.5 272.4,94.8 276.5,100.0 280.6,100.0 284.8,100.0 288.9,100.0 293.0,100.0 297.2,89.6 301.3,92.2 305.4,100.0 309.6,100.0 313.7,87.9 317.8,87.0 322.0,93.9 326.1,90.5 330.2,81.8 334.4,100.0 338.5,100.0 342.7,100.0 346.8,87.9 350.9,91.3 355.1,87.0 359.2,83.6 363.3,100.0 367.5,100.0 371.6,93.9 375.7,97.4 379.9,94.8 384.0,100.0 384,100"/>
  <polyline fill="none" stroke="#3fb950" stroke-width="2" stroke-linecap="round" stroke-linejoin="round" points="16.0,100.0 20.1,100.0 24.3,96.5 28.4,81.0 32.5,89.6 36.7,97.4 40.8,69.7 44.9,100.0 49.1,100.0 53.2,67.1 57.3,64.5 61.5,74.0 65.6,100.0 69.8,55.0 73.9,100.0 78.0,100.0 82.2,65.4 86.3,76.6 90.4,85.3 94.6,100.0 98.7,90.5 102.8,100.0 107.0,100.0 111.1,83.6 115.2,86.2 119.4,72.3 123.5,79.2 127.6,81.0 131.8,100.0 135.9,100.0 140.0,94.8 144.2,81.0 148.3,98.3 152.4,86.2 156.6,97.4 160.7,100.0 164.9,100.0 169.0,96.5 173.1,94.8 177.3,98.3 181.4,93.1 185.5,79.2 189.7,100.0 193.8,100.0 197.9,86.2 202.1,90.5 206.2,65.4 210.3,80.1 214.5,78.4 218.6,100.0 222.7,100.0 226.9,84.4 231.0,76.6 235.1,88.8 239.3,82.7 243.4,88.8 247.6,100.0 251.7,99.1 255.8,60.2 260.0,63.7 264.1,77.5 268.2,90.5 272.4,94.8 276.5,100.0 280.6,100.0 284.8,100.0 288.9,100.0 293.0,100.0 297.2,89.6 301.3,92.2 305.4,100.0 309.6,100.0 313.7,87.9 317.8,87.0 322.0,93.9 326.1,90.5 330.2,81.8 334.4,100.0 338.5,100.0 342.7,100.0 346.8,87.9 350.9,91.3 355.1,87.0 359.2,83.6 363.3,100.0 367.5,100.0 371.6,93.9 375.7,97.4 379.9,94.8 384.0,100.0"/>
  <text x="384" y="28" class="subtitle" text-anchor="end">1039 commits</text>
  <text x="384" y="44" class="subtitle" text-anchor="end">avg 11.5/day</text>
</svg>