<svg width="400" height="120" xmlns="http://www.w3.org/2000/svg">
  <style>
    .title { font: bold 14px -apple-system, BlinkMacSystemFont, sans-serif; fill: #c9d1d9; }
    .subtitle { font: 11px -apple-system, BlinkMacSystemFont, sans-serif; fill: #8b949e; }
    .axis { font: 10px -apple-system, BlinkMacSystemFont, sans-serif; fill: #8b949e; }
  </style>
  <rect width="100%" height="100%" fill="#0d1117" rx="6"/>
  <text x="16" y="28" class="title">Commit Activity</text>
  <text x="16" y="44" class="subtitle">Last 90 days</text>

  <line x1="16" y1="55.0" x2="384" y2="55.0" stroke="#21262d" stroke-width="1"/>
  <line x1="16" y1="66.25" x2="384" y2="66.25" stroke="#21262d" stroke-width="1"/>
  <line x1="16" y1="77.5" x2="384" y2="77.5" stroke="#21262d" stroke-width="1"/>
  <line x1="16" y1="88.75" x2="384" y2="88.75" stroke="#21262d" stroke-width="1"/>
  <line x1="16" y1="100.0" x2="384" y2="100.0" stroke="#21262d" stroke-width="1"/>
  <defs>
    <linearGradient id="fillGrad" x1="0%" y1="0%" x2="0%" y2="100%">
      <stop offset="0%" style="stop-color:#3fb950;stop-opacity:0.3"/>
      <stop offset="100%" style="stop-color:#3fb950;stop-opacity:0"/>
    </linearGradient>
  </defs>
  <polygon fill="url(#fillGrad)" points="16,100 16.0,100.0 20.1,100.0 24.3,88.8 28.4,92.2 32.5,92.2 36.7,85.3 40.8,87.9 44.9,100.0 49.1,100.0 53.2,96.5 57.3,81.0 61.5,89.6 65.6,97.4 69.8,69.7 73.9,100.0 78.0,100.0 82.2,67.1 86.3,64.5 90.4,74.0 94.6,100.0 98.7,55.0 102.8,100.0 107.0,100.0 111.1,65.4 115.2,76.6 119.4,85.3 123.5,100.0 127.6,90.5 131.8,100.0 135.9,100.0 140.0,83.6 144.2,86.2 148.3,72.3 152.4,79.2 156.6,81.0 160.7,100.0 164.9,100.0 169.0,94.8 173.1,81.0 177.3,98.3 181.4,86.2 185.5,97.4 189.7,100.0 193.8,100.0 197.9,96.5 202.1,94.8 206.2,98.3 210.3,93.1 214.5,79.2 218.6,100.0 222.7,100.0 226.9,86.2 231.0,90.5 235.1,65.4 239.3,80.1 243.4,78.4 247.6,100.0 251.7,100.0 255.8,84.4 260.0,76.6 264.1,88.8 268.2,82.7 272.4,88.8 276.5,100.0 280.6,99.1 284.8,60.2 288.9,63.7 293.0,77.5 297.2,90.5 301.3,94.8 305.4,100.0 309.6,100.0 313.7,100.0 317.8,100.0 322.0,100.0 326.1,89.6 330.2,92.2 334.4,100.0 338.5,100.0 342.7,87.9 346.8,87.0 350.9,93.9 355.1,90.5 359.2,81.8 363.3,100.0 367.5,100.0 371.6,100.0 375.7,87.9 379.9,91.3 384.0,94.8 384,100"/>
  <polyline fill="none" stroke="#3fb950" stroke-width="2" stroke-linecap="round" stroke-linejoin="round" points="16.0,100.0 20.1,100.0 24.3,88.8 28.4,92.2 32.5,92.2 36.7,85.3 40.8,87.9 44.9,100.0 49.1,100.0 53.2,96.5 57.3,81.0 61.5,89.6 65.6,97.4 69.8,69.7 73.9,100.0 78.0,100.0 82.2,67.1 86.3,64.5 90.4,74.0 94.6,100.0 98.7,55.0 102.8,100.0 107.0,100.0 111.1,65.4 115.2,76.6 119.4,85.3 123.5,100.0 127.6,90.5 131.8,100.0 135.9,100.0 140.0,83.6 144.2,86.2 148.3,72.3 152.4,79.2 156.6,81.0 160.7,100.0 164.9,100.0 169.0,94.8 173.1,81.0 177.3,98.3 181.4,86.2 185.5,97.4 189.7,100.0 193.8,100.0 197.9,96.5 202.1,94.8 206.2,98.3 210.3,93.1 214.5,79.2 218.6,100.0 222.7,100.0 226.9,86.2 231.0,90.5 235.1,65.4 239.3,80.1 243.4,78.4 247.6,100.0 251.7,100.0 255.8,84.4 260.0,76.6 264.1,88.8 268.2,82.7 272.4,88.8 276.5,100.0 280.6,99.1 284.8,60.2 288.9,63.7 293.0,77.5 297.2,90.5 301.3,94.8 305.4,100.0 309.6,100.0 313.7,100.0 317.8,100.0 322.0,100.0 326.1,89.6 330.2,92.2 334.4,100.0 338.5,100.0 342.7,87.9 346.8,87.0 350.9,93.9 355.1,90.5 359.2,81.8 363.3,100.0 367.5,100.0 371.6,100.0 375.7,87.9 379.9,91.3 384.0,94.8"/>
  <text x="384" y="28" class="subtitle" text-anchor="end">1057 commits</text>
  <text x="384" y="44" class="subtitle" text-anchor="end">avg 11.7/day</text>
</svg>