<svg width="400" height="120" xmlns="http://www.w3.org/2000/svg">
  <style>
    .title { font: bold 14px -apple-system, BlinkMacSystemFont, sans-serif; fill: #c9d1d9; }
    .subtitle { font: 11px -apple-system, BlinkMacSystemFont, sans-serif; fill: #8b949e; }
    .axis { font: 10px -apple-system, BlinkMacSystemFont, sans-serif; fill: #8b949e; }
  </style>
  <rect width="100%" height="100%" fill="#0d1117" rx="6"/>
  <text x="16" y="28" class="title">Commit Activity</text>
  <text x="16" y="44" class="subtitle">Last 90 days</text>

  <line x1="16" y1="55.0" x2="384" y2="55.0" stroke="#21262d" stroke-width="1"/>
  <line x1="16" y1="66.25" x2="384" y2="66.25" stroke="#21262d" stroke-width="1"/>
  <line x1="16" y1="77.5" x2="384" y2="77.5" stroke="#21262d" stroke-width="1"/>
  <line x1="16" y1="88.75" x2="384" y2="88.75" stroke="#21262d" stroke-width="1"/>
  <line x1="16" y1="100.0" x2="384" y2="100.0" stroke="#21262d" stroke-width="1"/>
  <defs>
    <linearGradient id="fillGrad" x1="0%" y1="0%" x2="0%" y2="100%">
      <stop offset="0%" style="stop-color:#3fb950;stop-opacity:0.3"/>
      <stop offset="100%" style="stop-color:#3fb950;stop-opacity:0"/>
    </linearGradient>
  </defs>
  <polygon fill="url(#fillGrad)" points="16,100 16.0,100.0 20.1,100.0 24.3,100.0 28.4,99.1 32.5,93.1 36.7,95.7 40.8,97.4 44.9,100.0 49.1,100.0 53.2,95.7 57.3,92.2 61.5,98.3 65.6,96.5 69.8,96.5 73.9,100.0 78.0,100.0 82.2,91.3 86.3,90.5 90.4,81.8 94.6,85.3 98.7,90.5 102.8,100.0 107.0,100.0 111.1,86.2 115.2,97.4 119.4,95.7 123.5,94.8 127.6,92.2 131.8,100.0 135.9,100.0 140.0,88.8 144.2,92.2 148.3,92.2 152.4,85.3 156.6,87.9 160.7,100.0 164.9,100.0 169.0,96.5 173.1,81.0 177.3,89.6 181.4,97.4 185.5,69.7 189.7,100.0 193.8,100.0 197.9,67.1 202.1,64.5 206.2,74.0 210.3,100.0 214.5,55.0 218.6,100.0 222.7,100.0 226.9,65.4 231.0,76.6 235.1,85.3 239.3,100.0 243.4,90.5 247.6,100.0 251.7,100.0 255.8,83.6 260.0,86.2 264.1,72.3 268.2,79.2 272.4,81.0 276.5,100.0 280.6,100.0 284.8,94.8 288.9,81.0 293.0,98.3 297.2,86.2 301.3,97.4 305.4,100.0 309.6,100.0 313.7,96.5 317.8,94.8 322.0,98.3 326.1,93.1 330.2,79.2 334.4,100.0 338.5,100.0 342.7,86.2 346.8,90.5 350.9,65.4 355.1,80.1 359.2,78.4 363.3,100.0 367.5,100.0 371.6,84.4 375.7,79.2 379.9,90.5 384.0,99.1 384,100"/>
  <polyline fill="none" stroke="#3fb950" stroke-width="2" stroke-linecap="round" stroke-linejoin="round" points="16.0,100.0 20.1,100.0 24.3,100.0 28.4,99.1 32.5,93.1 36.7,95.7 40.8,97.4 44.9,100.0 49.1,100.0 53.2,95.7 57.3,92.2 61.5,98.3 65.6,96.5 69.8,96.5 73.9,100.0 78.0,100.0 82.2,91.3 86.3,90.5 90.4,81.8 94.6,85.3 98.7,90.5 102.8,100.0 107.0,100.0 111.1,86.2 115.2,97.4 119.4,95.7 123.5,94.8 127.6,92.2 131.8,100.0 135.9,100.0 140.0,88.8 144.2,92.2 148.3,92.2 152.4,85.3 156.6,87.9 160.7,100.0 164.9,100.0 169.0,96.5 173.1,81.0 177.3,89.6 181.4,97.4 185.5,69.7 189.7,100.0 193.8,100.0 197.9,67.1 202.1,64.5 206.2,74.0 210.3,100.0 214.5,55.0 218.6,100.0 222.7,100.0 226.9,65.4 231.0,76.6 235.1,85.3 239.3,100.0 243.4,90.5 247.6,100.0 251.7,100.0 255.8,83.6 260.0,86.2 264.1,72.3 268.2,79.2 272.4,81.0 276.5,100.0 280.6,100.0 284.8,94.8 288.9,81.0 293.0,98.3 297.2,86.2 301.3,97.4 305.4,100.0 309.6,100.0 313.7,96.5 317.8,94.8 322.0,98.3 326.1,93.1 330.2,79.2 334.4,100.0 338.5,100.0 342.7,86.2 346.8,90.5 350.9,65.4 355.1,80.1 359.2,78.4 363.3,100.0 367.5,100.0 371.6,84.4 375.7,79.2 379.9,90.5 384.0,99.1"/>
  <text x="384" y="28" class="subtitle" text-anchor="end">919 commits</text>
  <text x="384" y="44" class="subtitle" text-anchor="end">avg 10.2/day</text>
</svg>