<svg width="400" height="120" xmlns="http://www.w3.org/2000/svg">
  <style>
    .title { font: bold 14px -apple-system, BlinkMacSystemFont, sans-serif; fill: #c9d1d9; }
    .subtitle { font: 11px -apple-system, BlinkMacSystemFont, sans-serif; fill: #8b949e; }
    .axis { font: 10px -apple-system, BlinkMacSystemFont, sans-serif; fill: #8b949e; }
  </style>
  <rect width="100%" height="100%" fill="#0d1117" rx="6"/>
  <text x="16" y="28" class="title">Commit Activity</text>
  <text x="16" y="44" class="subtitle">Last 90 days</text>

  <line x1="16" y1="55.0" x2="384" y2="55.0" stroke="#21262d" stroke-width="1"/>
  <line x1="16" y1="66.25" x2="384" y2="66.25" stroke="#21262d" stroke-width="1"/>
  <line x1="16" y1="77.5" x2="384" y2="77.5" stroke="#21262d" stroke-width="1"/>
  <line x1="16" y1="88.75" x2="384" y2="88.75" stroke="#21262d" stroke-width="1"/>
  <line x1="16" y1="100.0" x2="384" y2="100.0" stroke="#21262d" stroke-width="1"/>
  <defs>
    <linearGradient id="fillGrad" x1="0%" y1="0%" x2="0%" y2="100%">
      <stop offset="0%" style="stop-color:#3fb950;stop-opacity:0.3"/>
      <stop offset="100%" style="stop-color:#3fb950;stop-opacity:0"/>
    </linearGradient>
  </defs>
  <polygon fill="url(#fillGrad)" points="16,100 16.0,100.0 20.1,81.4 24.3,86.0 28.4,100.0 32.5,100.0 36.7,78.3 40.8,76.7 44.9,89.1 49.1,82.9 53.2,67.4 57.3,100.0 61.5,100.0 65.6,100.0 69.8,78.3 73.9,84.5 78.0,76.7 82.2,70.5 86.3,100.0 90.4,100.0 94.6,87.6 98.7,95.3 102.8,84.5 107.0,81.4 111.1,87.6 115.2,100.0 119.4,100.0 123.5,84.5 127.6,89.1 131.8,86.0 135.9,69.0 140.0,86.0 144.2,100.0 148.3,100.0 152.4,86.0 156.6,81.4 160.7,86.0 164.9,87.6 169.0,70.5 173.1,100.0 177.3,100.0 181.4,84.5 185.5,87.6 189.7,87.6 193.8,89.1 197.9,64.3 202.1,100.0 206.2,100.0 210.3,81.4 214.5,64.3 218.6,75.2 222.7,69.0 226.9,95.3 231.0,100.0 235.1,100.0 239.3,100.0 243.4,82.9 247.6,90.7 251.7,89.1 255.8,76.7 260.0,100.0 264.1,100.0 268.2,87.6 272.4,92.2 276.5,93.8 280.6,79.8 284.8,86.0 288.9,100.0 293.0,98.4 297.2,86.0 301.3,64.3 305.4,86.0 309.6,62.8 313.7,98.4 317.8,100.0 322.0,100.0 326.1,73.6 330.2,100.0 334.4,75.2 338.5,59.7 342.7,79.8 346.8,100.0 350.9,95.3 355.1,59.7 359.2,55.0 363.3,67.4 367.5,76.7 371.6,72.1 375.7,100.0 379.9,100.0 384.0,76.7 384,100"/>
  <polyline fill="none" stroke="#3fb950" stroke-width="2" stroke-linecap="round" stroke-linejoin="round" points="16.0,100.0 20.1,81.4 24.3,86.0 28.4,100.0 32.5,100.0 36.7,78.3 40.8,76.7 44.9,89.1 49.1,82.9 53.2,67.4 57.3,100.0 61.5,100.0 65.6,100.0 69.8,78.3 73.9,84.5 78.0,76.7 82.2,70.5 86.3,100.0 90.4,100.0 94.6,87.6 98.7,95.3 102.8,84.5 107.0,81.4 111.1,87.6 115.2,100.0 119.4,100.0 123.5,84.5 127.6,89.1 131.8,86.0 135.9,69.0 140.0,86.0 144.2,100.0 148.3,100.0 152.4,86.0 156.6,81.4 160.7,86.0 164.9,87.6 169.0,70.5 173.1,100.0 177.3,100.0 181.4,84.5 185.5,87.6 189.7,87.6 193.8,89.1 197.9,64.3 202.1,100.0 206.2,100.0 210.3,81.4 214.5,64.3 218.6,75.2 222.7,69.0 226.9,95.3 231.0,100.0 235.1,100.0 239.3,100.0 243.4,82.9 247.6,90.7 251.7,89.1 255.8,76.7 260.0,100.0 264.1,100.0 268.2,87.6 272.4,92.2 276.5,93.8 280.6,79.8 284.8,86.0 288.9,100.0 293.0,98.4 297.2,86.0 301.3,64.3 305.4,86.0 309.6,62.8 313.7,98.4 317.8,100.0 322.0,100.0 326.1,73.6 330.2,100.0 334.4,75.2 338.5,59.7 342.7,79.8 346.8,100.0 350.9,95.3 355.1,59.7 359.2,55.0 363.3,67.4 367.5,76.7 371.6,72.1 375.7,100.0 379.9,100.0 384.0,76.7"/>
  <text x="384" y="28" class="subtitle" text-anchor="end">774 commits</text>
  <text x="384" y="44" class="subtitle" text-anchor="end">avg 8.6/day</text>
</svg>