<svg width="400" height="120" xmlns="http://www.w3.org/2000/svg">
  <style>
    .title { font: bold 14px -apple-system, BlinkMacSystemFont, sans-serif; fill: #c9d1d9; }
    .subtitle { font: 11px -apple-system, BlinkMacSystemFont, sans-serif; fill: #8b949e; }
    .axis { font: 10px -apple-system, BlinkMacSystemFont, sans-serif; fill: #8b949e; }
  </style>
  <rect width="100%" height="100%" fill="#0d1117" rx="6"/>
  <text x="16" y="28" class="title">Commit Activity</text>
  <text x="16" y="44" class="subtitle">Last 90 days</text>

  <line x1="16" y1="55.0" x2="384" y2="55.0" stroke="#21262d" stroke-width="1"/>
  <line x1="16" y1="66.25" x2="384" y2="66.25" stroke="#21262d" stroke-width="1"/>
  <line x1="16" y1="77.5" x2="384" y2="77.5" stroke="#21262d" stroke-width="1"/>
  <line x1="16" y1="88.75" x2="384" y2="88.75" stroke="#21262d" stroke-width="1"/>
  <line x1="16" y1="100.0" x2="384" y2="100.0" stroke="#21262d" stroke-width="1"/>
  <defs>
    <linearGradient id="fillGrad" x1="0%" y1="0%" x2="0%" y2="100%">
      <stop offset="0%" style="stop-color:#3fb950;stop-opacity:0.3"/>
      <stop offset="100%" style="stop-color:#3fb950;stop-opacity:0"/>
    </linearGradient>
  </defs>
  <polygon fill="url(#fillGrad)" points="16,100 16.0,100.0 20.1,99.3 24.3,57.8 28.4,76.5 32.5,68.8 36.7,72.3 40.8,55.0 44.9,100.0 49.1,100.0 53.2,63.3 57.3,74.4 61.5,64.0 65.6,67.5 69.8,70.2 73.9,100.0 78.0,100.0 82.2,65.4 86.3,81.3 90.4,78.5 94.6,75.1 98.7,74.4 102.8,100.0 107.0,100.0 111.1,86.8 115.2,89.6 119.4,84.8 123.5,79.9 127.6,88.9 131.8,100.0 135.9,99.3 140.0,59.2 144.2,66.8 148.3,68.8 152.4,73.7 156.6,99.3 160.7,100.0 164.9,99.3 169.0,84.8 173.1,70.2 177.3,60.5 181.4,67.5 185.5,71.6 189.7,100.0 193.8,100.0 197.9,64.0 202.1,70.9 206.2,81.3 210.3,79.2 214.5,75.1 218.6,100.0 222.7,97.9 226.9,79.2 231.0,77.8 235.1,94.5 239.3,88.2 243.4,97.2 247.6,100.0 251.7,100.0 255.8,87.5 260.0,77.2 264.1,73.0 268.2,70.9 272.4,82.7 276.5,100.0 280.6,100.0 284.8,100.0 288.9,88.2 293.0,84.8 297.2,73.0 301.3,86.2 305.4,100.0 309.6,100.0 313.7,56.4 317.8,79.2 322.0,79.9 326.1,93.1 330.2,81.3 334.4,100.0 338.5,100.0 342.7,70.2 346.8,70.2 350.9,84.1 355.1,79.2 359.2,84.1 363.3,100.0 367.5,97.9 371.6,93.1 375.7,94.5 379.9,89.6 384.0,96.5 384,100"/>
  <polyline fill="none" stroke="#3fb950" stroke-width="2" stroke-linecap="round" stroke-linejoin="round" points="16.0,100.0 20.1,99.3 24.3,57.8 28.4,76.5 32.5,68.8 36.7,72.3 40.8,55.0 44.9,100.0 49.1,100.0 53.2,63.3 57.3,74.4 61.5,64.0 65.6,67.5 69.8,70.2 73.9,100.0 78.0,100.0 82.2,65.4 86.3,81.3 90.4,78.5 94.6,75.1 98.7,74.4 102.8,100.0 107.0,100.0 111.1,86.8 115.2,89.6 119.4,84.8 123.5,79.9 127.6,88.9 131.8,100.0 135.9,99.3 140.0,59.2 144.2,66.8 148.3,68.8 152.4,73.7 156.6,99.3 160.7,100.0 164.9,99.3 169.0,84.8 173.1,70.2 177.3,60.5 181.4,67.5 185.5,71.6 189.7,100.0 193.8,100.0 197.9,64.0 202.1,70.9 206.2,81.3 210.3,79.2 214.5,75.1 218.6,100.0 222.7,97.9 226.9,79.2 231.0,77.8 235.1,94.5 239.3,88.2 243.4,97.2 247.6,100.0 251.7,100.0 255.8,87.5 260.0,77.2 264.1,73.0 268.2,70.9 272.4,82.7 276.5,100.0 280.6,100.0 284.8,100.0 288.9,88.2 293.0,84.8 297.2,73.0 301.3,86.2 305.4,100.0 309.6,100.0 313.7,56.4 317.8,79.2 322.0,79.9 326.1,93.1 330.2,81.3 334.4,100.0 338.5,100.0 342.7,70.2 346.8,70.2 350.9,84.1 355.1,79.2 359.2,84.1 363.3,100.0 367.5,97.9 371.6,93.1 375.7,94.5 379.9,89.6 384.0,96.5"/>
  <text x="384" y="28" class="subtitle" text-anchor="end">2061 commits</text>
  <text x="384" y="44" class="subtitle" text-anchor="end">avg 22.9/day</text>
</svg>