<svg width="400" height="120" xmlns="http://www.w3.org/2000/svg">
  <style>
    .title { font: bold 14px -apple-system, BlinkMacSystemFont, sans-serif; fill: #c9d1d9; }
    .subtitle { font: 11px -apple-system, BlinkMacSystemFont, sans-serif; fill: #8b949e; }
    .axis { font: 10px -apple-system, BlinkMacSystemFont, sans-serif; fill: #8b949e; }
  </style>
  <rect width="100%" height="100%" fill="#0d1117" rx="6"/>
  <text x="16" y="28" class="title">Commit Activity</text>
  <text x="16" y="44" class="subtitle">Last 90 days</text>

  <line x1="16" y1="55.0" x2="384" y2="55.0" stroke="#21262d" stroke-width="1"/>
  <line x1="16" y1="66.25" x2="384" y2="66.25" stroke="#21262d" stroke-width="1"/>
  <line x1="16" y1="77.5" x2="384" y2="77.5" stroke="#21262d" stroke-width="1"/>
  <line x1="16" y1="88.75" x2="384" y2="88.75" stroke="#21262d" stroke-width="1"/>
  <line x1="16" y1="100.0" x2="384" y2="100.0" stroke="#21262d" stroke-width="1"/>
  <defs>
    <linearGradient id="fillGrad" x1="0%" y1="0%" x2="0%" y2="100%">
      <stop offset="0%" style="stop-color:#3fb950;stop-opacity:0.3"/>
      <stop offset="100%" style="stop-color:#3fb950;stop-opacity:0"/>
    </linearGradient>
  </defs>
  <polygon fill="url(#fillGrad)" points="16,100 16.0,100.0 20.1,100.0 24.3,100.0 28.4,99.2 32.5,97.6 36.7,100.0 40.8,100.0 44.9,100.0 49.1,100.0 53.2,100.0 57.3,100.0 61.5,99.2 65.6,100.0 69.8,100.0 73.9,100.0 78.0,100.0 82.2,99.2 86.3,100.0 90.4,100.0 94.6,99.2 98.7,99.2 102.8,100.0 107.0,100.0 111.1,100.0 115.2,99.2 119.4,93.6 123.5,96.0 127.6,97.6 131.8,100.0 135.9,100.0 140.0,96.0 144.2,92.8 148.3,98.4 152.4,96.8 156.6,96.8 160.7,100.0 164.9,100.0 169.0,92.0 173.1,91.2 177.3,83.1 181.4,86.3 185.5,92.0 189.7,100.0 193.8,100.0 197.9,87.1 202.1,97.6 206.2,96.0 210.3,96.8 214.5,92.8 218.6,100.0 222.7,100.0 226.9,93.6 231.0,92.8 235.1,92.8 239.3,87.1 243.4,88.8 247.6,100.0 251.7,100.0 255.8,96.8 260.0,79.1 264.1,90.4 268.2,97.6 272.4,72.7 276.5,100.0 280.6,100.0 284.8,69.5 288.9,68.7 293.0,75.9 297.2,100.0 301.3,58.2 305.4,100.0 309.6,100.0 313.7,68.7 317.8,78.3 322.0,86.3 326.1,100.0 330.2,91.2 334.4,100.0 338.5,100.0 342.7,86.3 346.8,87.9 350.9,74.3 355.1,80.7 359.2,82.3 363.3,100.0 367.5,100.0 371.6,95.2 375.7,86.3 379.9,55.0 384.0,82.3 384,100"/>
  <polyline fill="none" stroke="#3fb950" stroke-width="2" stroke-linecap="round" stroke-linejoin="round" points="16.0,100.0 20.1,100.0 24.3,100.0 28.4,99.2 32.5,97.6 36.7,100.0 40.8,100.0 44.9,100.0 49.1,100.0 53.2,100.0 57.3,100.0 61.5,99.2 65.6,100.0 69.8,100.0 73.9,100.0 78.0,100.0 82.2,99.2 86.3,100.0 90.4,100.0 94.6,99.2 98.7,99.2 102.8,100.0 107.0,100.0 111.1,100.0 115.2,99.2 119.4,93.6 123.5,96.0 127.6,97.6 131.8,100.0 135.9,100.0 140.0,96.0 144.2,92.8 148.3,98.4 152.4,96.8 156.6,96.8 160.7,100.0 164.9,100.0 169.0,92.0 173.1,91.2 177.3,83.1 181.4,86.3 185.5,92.0 189.7,100.0 193.8,100.0 197.9,87.1 202.1,97.6 206.2,96.0 210.3,96.8 214.5,92.8 218.6,100.0 222.7,100.0 226.9,93.6 231.0,92.8 235.1,92.8 239.3,87.1 243.4,88.8 247.6,100.0 251.7,100.0 255.8,96.8 260.0,79.1 264.1,90.4 268.2,97.6 272.4,72.7 276.5,100.0 280.6,100.0 284.8,69.5 288.9,68.7 293.0,75.9 297.2,100.0 301.3,58.2 305.4,100.0 309.6,100.0 313.7,68.7 317.8,78.3 322.0,86.3 326.1,100.0 330.2,91.2 334.4,100.0 338.5,100.0 342.7,86.3 346.8,87.9 350.9,74.3 355.1,80.7 359.2,82.3 363.3,100.0 367.5,100.0 371.6,95.2 375.7,86.3 379.9,55.0 384.0,82.3"/>
  <text x="384" y="28" class="subtitle" text-anchor="end">754 commits</text>
  <text x="384" y="44" class="subtitle" text-anchor="end">avg 8.4/day</text>
</svg>