<svg width="400" height="120" xmlns="http://www.w3.org/2000/svg">
  <style>
    .title { font: bold 14px -apple-system, BlinkMacSystemFont, sans-serif; fill: #c9d1d9; }
    .subtitle { font: 11px -apple-system, BlinkMacSystemFont, sans-serif; fill: #8b949e; }
    .axis { font: 10px -apple-system, BlinkMacSystemFont, sans-serif; fill: #8b949e; }
  </style>
  <rect width="100%" height="100%" fill="#0d1117" rx="6"/>
  <text x="16" y="28" class="title">Commit Activity</text>
  <text x="16" y="44" class="subtitle">Last 90 days</text>

  <line x1="16" y1="55.0" x2="384" y2="55.0" stroke="#21262d" stroke-width="1"/>
  <line x1="16" y1="66.25" x2="384" y2="66.25" stroke="#21262d" stroke-width="1"/>
  <line x1="16" y1="77.5" x2="384" y2="77.5" stroke="#21262d" stroke-width="1"/>
  <line x1="16" y1="88.75" x2="384" y2="88.75" stroke="#21262d" stroke-width="1"/>
  <line x1="16" y1="100.0" x2="384" y2="100.0" stroke="#21262d" stroke-width="1"/>
  <defs>
    <linearGradient id="fillGrad" x1="0%" y1="0%" x2="0%" y2="100%">
      <stop offset="0%" style="stop-color:#3fb950;stop-opacity:0.3"/>
      <stop offset="100%" style="stop-color:#3fb950;stop-opacity:0"/>
    </linearGradient>
  </defs>
  <polygon fill="url(#fillGrad)" points="16,100 16.0,99.3 20.1,94.0 24.3,84.8 28.4,94.0 32.5,84.1 36.7,99.3 40.8,100.0 44.9,100.0 49.1,86.1 53.2,100.0 57.3,88.8 61.5,76.8 65.6,89.4 69.8,100.0 73.9,97.4 78.0,63.6 82.2,71.5 86.3,78.8 90.4,81.5 94.6,85.4 98.7,99.3 102.8,97.4 107.0,76.2 111.1,78.2 115.2,72.2 119.4,82.8 123.5,78.8 127.6,100.0 131.8,100.0 135.9,100.0 140.0,76.2 144.2,73.5 148.3,80.8 152.4,83.5 156.6,100.0 160.7,100.0 164.9,80.8 169.0,60.3 173.1,99.3 177.3,70.9 181.4,80.1 185.5,100.0 189.7,99.3 193.8,78.2 197.9,70.2 202.1,68.9 206.2,63.6 210.3,55.0 214.5,100.0 218.6,99.3 222.7,59.6 226.9,77.5 231.0,70.2 235.1,73.5 239.3,57.0 243.4,100.0 247.6,100.0 251.7,64.9 255.8,75.5 260.0,65.6 264.1,68.9 268.2,71.5 272.4,100.0 276.5,100.0 280.6,66.9 284.8,82.1 288.9,79.5 293.0,76.2 297.2,75.5 301.3,100.0 305.4,100.0 309.6,87.4 313.7,90.1 317.8,85.4 322.0,80.8 326.1,89.4 330.2,100.0 334.4,99.3 338.5,61.0 342.7,72.9 346.8,72.2 350.9,77.5 355.1,99.3 359.2,100.0 363.3,99.3 367.5,85.4 371.6,78.2 375.7,67.6 379.9,72.9 384.0,93.4 384,100"/>
  <polyline fill="none" stroke="#3fb950" stroke-width="2" stroke-linecap="round" stroke-linejoin="round" points="16.0,99.3 20.1,94.0 24.3,84.8 28.4,94.0 32.5,84.1 36.7,99.3 40.8,100.0 44.9,100.0 49.1,86.1 53.2,100.0 57.3,88.8 61.5,76.8 65.6,89.4 69.8,100.0 73.9,97.4 78.0,63.6 82.2,71.5 86.3,78.8 90.4,81.5 94.6,85.4 98.7,99.3 102.8,97.4 107.0,76.2 111.1,78.2 115.2,72.2 119.4,82.8 123.5,78.8 127.6,100.0 131.8,100.0 135.9,100.0 140.0,76.2 144.2,73.5 148.3,80.8 152.4,83.5 156.6,100.0 160.7,100.0 164.9,80.8 169.0,60.3 173.1,99.3 177.3,70.9 181.4,80.1 185.5,100.0 189.7,99.3 193.8,78.2 197.9,70.2 202.1,68.9 206.2,63.6 210.3,55.0 214.5,100.0 218.6,99.3 222.7,59.6 226.9,77.5 231.0,70.2 235.1,73.5 239.3,57.0 243.4,100.0 247.6,100.0 251.7,64.9 255.8,75.5 260.0,65.6 264.1,68.9 268.2,71.5 272.4,100.0 276.5,100.0 280.6,66.9 284.8,82.1 288.9,79.5 293.0,76.2 297.2,75.5 301.3,100.0 305.4,100.0 309.6,87.4 313.7,90.1 317.8,85.4 322.0,80.8 326.1,89.4 330.2,100.0 334.4,99.3 338.5,61.0 342.7,72.9 346.8,72.2 350.9,77.5 355.1,99.3 359.2,100.0 363.3,99.3 367.5,85.4 371.6,78.2 375.7,67.6 379.9,72.9 384.0,93.4"/>
  <text x="384" y="28" class="subtitle" text-anchor="end">2151 commits</text>
  <text x="384" y="44" class="subtitle" text-anchor="end">avg 23.9/day</text>
</svg>