<svg width="400" height="120" xmlns="http://www.w3.org/2000/svg">
  <style>
    .title { font: bold 14px -apple-system, BlinkMacSystemFont, sans-serif; fill: #c9d1d9; }
    .subtitle { font: 11px -apple-system, BlinkMacSystemFont, sans-serif; fill: #8b949e; }
    .axis { font: 10px -apple-system, BlinkMacSystemFont, sans-serif; fill: #8b949e; }
  </style>
  <rect width="100%" height="100%" fill="#0d1117" rx="6"/>
  <text x="16" y="28" class="title">Commit Activity</text>
  <text x="16" y="44" class="subtitle">Last 90 days</text>

  <line x1="16" y1="55.0" x2="384" y2="55.0" stroke="#21262d" stroke-width="1"/>
  <line x1="16" y1="66.25" x2="384" y2="66.25" stroke="#21262d" stroke-width="1"/>
  <line x1="16" y1="77.5" x2="384" y2="77.5" stroke="#21262d" stroke-width="1"/>
  <line x1="16" y1="88.75" x2="384" y2="88.75" stroke="#21262d" stroke-width="1"/>
  <line x1="16" y1="100.0" x2="384" y2="100.0" stroke="#21262d" stroke-width="1"/>
  <defs>
    <linearGradient id="fillGrad" x1="0%" y1="0%" x2="0%" y2="100%">
      <stop offset="0%" style="stop-color:#3fb950;stop-opacity:0.3"/>
      <stop offset="100%" style="stop-color:#3fb950;stop-opacity:0"/>
    </linearGradient>
  </defs>
  <polygon fill="url(#fillGrad)" points="16,100 16.0,100.0 20.1,100.0 24.3,92.2 28.4,85.0 32.5,89.6 36.7,87.0 40.8,98.0 44.9,100.0 49.1,100.0 53.2,100.0 57.3,92.8 61.5,96.1 65.6,95.4 69.8,90.2 73.9,100.0 78.0,100.0 82.2,94.8 86.3,96.7 90.4,97.4 94.6,91.5 98.7,94.1 102.8,100.0 107.0,99.3 111.1,94.1 115.2,85.0 119.4,94.1 123.5,84.3 127.6,99.3 131.8,100.0 135.9,100.0 140.0,86.3 144.2,100.0 148.3,88.3 152.4,77.2 156.6,89.6 160.7,100.0 164.9,97.4 169.0,64.1 173.1,72.0 177.3,77.8 181.4,81.7 185.5,85.7 189.7,99.3 193.8,97.4 197.9,76.5 202.1,78.5 206.2,72.6 210.3,83.0 214.5,79.1 218.6,100.0 222.7,100.0 226.9,100.0 231.0,76.5 235.1,73.9 239.3,81.1 243.4,83.7 247.6,100.0 251.7,100.0 255.8,81.1 260.0,60.2 264.1,99.3 268.2,71.3 272.4,80.4 276.5,100.0 280.6,99.3 284.8,78.5 288.9,70.7 293.0,69.3 297.2,64.1 301.3,55.0 305.4,100.0 309.6,99.3 313.7,60.2 317.8,77.8 322.0,70.7 326.1,73.9 330.2,57.6 334.4,100.0 338.5,100.0 342.7,64.8 346.8,75.9 350.9,67.4 355.1,72.0 359.2,74.6 363.3,100.0 367.5,100.0 371.6,72.6 375.7,85.0 379.9,84.3 384.0,91.5 384,100"/>
  <polyline fill="none" stroke="#3fb950" stroke-width="2" stroke-linecap="round" stroke-linejoin="round" points="16.0,100.0 20.1,100.0 24.3,92.2 28.4,85.0 32.5,89.6 36.7,87.0 40.8,98.0 44.9,100.0 49.1,100.0 53.2,100.0 57.3,92.8 61.5,96.1 65.6,95.4 69.8,90.2 73.9,100.0 78.0,100.0 82.2,94.8 86.3,96.7 90.4,97.4 94.6,91.5 98.7,94.1 102.8,100.0 107.0,99.3 111.1,94.1 115.2,85.0 119.4,94.1 123.5,84.3 127.6,99.3 131.8,100.0 135.9,100.0 140.0,86.3 144.2,100.0 148.3,88.3 152.4,77.2 156.6,89.6 160.7,100.0 164.9,97.4 169.0,64.1 173.1,72.0 177.3,77.8 181.4,81.7 185.5,85.7 189.7,99.3 193.8,97.4 197.9,76.5 202.1,78.5 206.2,72.6 210.3,83.0 214.5,79.1 218.6,100.0 222.7,100.0 226.9,100.0 231.0,76.5 235.1,73.9 239.3,81.1 243.4,83.7 247.6,100.0 251.7,100.0 255.8,81.1 260.0,60.2 264.1,99.3 268.2,71.3 272.4,80.4 276.5,100.0 280.6,99.3 284.8,78.5 288.9,70.7 293.0,69.3 297.2,64.1 301.3,55.0 305.4,100.0 309.6,99.3 313.7,60.2 317.8,77.8 322.0,70.7 326.1,73.9 330.2,57.6 334.4,100.0 338.5,100.0 342.7,64.8 346.8,75.9 350.9,67.4 355.1,72.0 359.2,74.6 363.3,100.0 367.5,100.0 371.6,72.6 375.7,85.0 379.9,84.3 384.0,91.5"/>
  <text x="384" y="28" class="subtitle" text-anchor="end">1785 commits</text>
  <text x="384" y="44" class="subtitle" text-anchor="end">avg 19.8/day</text>
</svg>